<svg width="752" height="796" viewBox="0 0 752 796" fill="none" xmlns="http://www.w3.org/2000/svg">
<path d="M388.224 602.686C388.224 588.016 376.349 576.141 361.681 576.141C347.033 576.141 335.138 588.016 335.138 602.686C335.138 617.354 347.033 629.229 361.681 629.229C376.349 629.229 388.224 617.354 388.224 602.686ZM370.529 524.991C385.568 527.645 400.021 534.835 411.72 546.534C438.732 573.544 438.986 600.302 425.998 640.304C465.998 627.315 492.757 627.567 519.769 654.581C549.611 684.407 550.062 732.354 520.802 761.612C467.814 814.602 383.617 790.753 276.603 789.72C275.568 682.688 251.642 598.43 304.631 545.442C322.443 527.626 347.17 520.831 370.529 524.991Z" fill="#EF3E5C"/>
<path d="M319.701 571.473C337.513 553.661 362.24 546.864 385.599 551.024C400.64 553.678 415.091 560.868 426.791 572.567C428.49 574.266 430.084 575.964 431.572 577.665C428.269 566.842 421.894 556.706 411.72 546.532C400.021 534.833 385.568 527.643 370.529 524.989C347.17 520.829 322.443 527.626 304.631 545.438C251.642 598.426 275.568 682.686 276.603 789.716C281.455 789.762 286.257 789.856 291.015 789.989C287.242 695.169 271.041 620.133 319.701 571.473Z" fill="#E42A53"/>
<path d="M557.521 257.586C542.851 257.586 530.976 269.461 530.976 284.129C530.976 298.778 542.851 310.672 557.521 310.672C572.189 310.672 584.064 298.778 584.064 284.129C584.064 269.461 572.189 257.586 557.521 257.586ZM556.037 205.711C575.002 206.532 593.849 214.266 608.48 228.895C636.097 256.532 636.369 283.895 623.088 324.793C664.006 311.512 691.369 311.785 718.988 339.403C749.496 369.91 749.984 418.953 720.062 448.877C665.863 503.076 579.728 478.662 470.275 477.608C469.222 368.153 444.767 281.961 498.967 227.762C514.572 212.157 535.373 204.832 556.037 205.711Z" fill="#EF3E5C"/>
<path d="M718.986 339.403C691.367 311.785 664.006 311.512 623.086 324.793C636.367 283.895 636.094 256.532 608.479 228.895C593.85 214.266 575 206.532 556.035 205.711C535.371 204.832 514.572 212.157 498.965 227.762C497.379 229.348 495.867 230.963 494.414 232.602C507.721 224.188 523.123 220.313 538.457 220.965C557.422 221.785 576.27 229.52 590.9 244.149C618.518 271.785 618.789 299.149 605.508 340.047C646.426 326.766 673.789 327.039 701.408 354.657C730.979 384.225 732.346 431.203 705.158 461.311C710.363 457.713 715.336 453.6 720.061 448.875C749.982 418.955 749.494 369.91 718.986 339.403Z" fill="#E42A53"/>
<path d="M193.557 205.731C211.721 206.668 229.533 214.012 243.283 227.762C297.482 281.961 273.01 368.152 271.955 477.608C162.502 478.662 76.369 503.076 22.1698 448.877C-7.75208 418.955 -7.26379 369.91 23.244 339.402C50.8612 311.785 78.2245 311.512 119.142 324.793C105.861 283.895 106.135 256.531 133.752 228.895C150.275 212.371 172.189 204.637 193.557 205.731ZM211.252 284.129C211.252 269.461 199.377 257.586 184.709 257.586C170.041 257.586 158.166 269.461 158.166 284.129C158.166 298.777 170.041 310.672 184.709 310.672C199.377 310.672 211.252 298.777 211.252 284.129Z" fill="#EF3E5C"/>
<path d="M243.283 227.762C229.533 214.012 211.721 206.668 193.557 205.731C172.189 204.637 150.275 212.371 133.752 228.895C123.293 239.361 116.762 249.793 113.396 260.932C115.42 258.482 117.637 256.041 120.08 253.598C136.604 237.074 158.518 229.34 179.885 230.434C198.049 231.371 215.861 238.715 229.611 252.465C279.705 302.559 262.596 379.984 258.883 477.846C263.203 477.734 267.559 477.65 271.955 477.609C273.01 368.152 297.482 281.961 243.283 227.762Z" fill="#E42A53"/>
<path d="M403.943 94.3027C392.812 94.3027 381.615 94.1992 370.349 93.9902C313.867 92.9042 255.678 89.207 197.387 83C88.6796 71.4511 15.1503 54.8906 14.4198 54.7246C9.16197 53.5292 5.86704 48.2968 7.06235 43.039C8.25571 37.7793 13.4842 34.4882 18.7479 35.6796C19.4686 35.8437 91.9764 52.1601 199.453 63.5781C257.185 69.7246 314.807 73.3867 370.719 74.4628C431.273 75.58 489.994 73.6523 545.226 68.7187C614.795 62.5117 680.226 51.4238 739.703 35.7597C744.926 34.3808 750.26 37.5019 751.633 42.7168C753.006 47.9316 749.891 53.2734 744.676 54.6464C684.141 70.5898 617.619 81.8691 546.963 88.1718C501.32 92.2499 453.344 94.3027 403.943 94.3027Z" fill="#E42A53"/>
<path d="M556.037 267.352C550.643 267.352 546.271 262.979 546.271 257.586V80.5938C546.271 75.2012 550.643 70.8281 556.037 70.8281C561.432 70.8281 565.803 75.2012 565.803 80.5938V257.586C565.803 262.979 561.43 267.352 556.037 267.352Z" fill="#E42A53"/>
<path d="M370.529 585.906C365.137 585.906 360.764 581.535 360.764 576.141V9.8125C360.764 4.41992 365.137 0.046875 370.529 0.046875C375.924 0.046875 380.295 4.41992 380.295 9.8125V576.141C380.295 581.535 375.924 585.906 370.529 585.906Z" fill="#E42A53"/>
<path d="M193.557 267.352C188.164 267.352 183.791 262.979 183.791 257.586V80.5943C183.791 78.6685 184.361 76.7857 185.428 75.1822L220.822 22.0904C223.816 17.6021 229.879 16.3931 234.365 19.3833C238.852 22.3755 240.064 28.44 237.072 32.9263L203.322 83.5474V257.586C203.322 262.979 198.949 267.352 193.557 267.352Z" fill="#E42A53"/>
<path d="M547.531 90.359C544.369 90.359 541.266 88.8258 539.387 85.9938L537.961 83.8453L503.988 32.9274C500.996 28.441 502.205 22.3766 506.692 19.3844C511.186 16.3922 517.242 17.6032 520.236 22.0875L555.658 75.191C558.643 79.6832 557.418 85.7438 552.926 88.7281C551.262 89.8317 549.385 90.359 547.531 90.359Z" fill="#E42A53"/>
<path d="M184.709 320.438C164.689 320.438 148.4 304.15 148.4 284.129C148.4 264.109 164.688 247.82 184.709 247.82C204.73 247.82 221.018 264.107 221.018 284.129C221.018 304.15 204.73 320.438 184.709 320.438ZM184.709 267.352C175.459 267.352 167.932 274.879 167.932 284.129C167.932 293.381 175.459 300.906 184.709 300.906C193.959 300.906 201.486 293.379 201.486 284.129C201.486 274.877 193.959 267.352 184.709 267.352Z" fill="#E42A53"/>
<path d="M557.521 320.438C537.5 320.438 521.211 304.15 521.211 284.129C521.211 264.109 537.5 247.82 557.521 247.82C577.541 247.82 593.83 264.107 593.83 284.129C593.83 304.15 577.541 320.438 557.521 320.438ZM557.521 267.352C548.27 267.352 540.742 274.879 540.742 284.129C540.742 293.381 548.27 300.906 557.521 300.906C566.771 300.906 574.299 293.379 574.299 284.129C574.299 274.877 566.773 267.352 557.521 267.352Z" fill="#E42A53"/>
<path d="M361.682 638.994C341.662 638.994 325.373 622.705 325.373 602.686C325.373 582.664 341.66 566.375 361.682 566.375C381.701 566.375 397.99 582.664 397.99 602.686C397.99 622.705 381.701 638.994 361.682 638.994ZM361.682 585.906C352.432 585.906 344.904 593.434 344.904 602.686C344.904 611.936 352.432 619.463 361.682 619.463C370.932 619.463 378.459 611.936 378.459 602.686C378.459 593.434 370.932 585.906 361.682 585.906Z" fill="#E42A53"/>
</svg>
