<svg width="836" height="606" viewBox="0 0 836 606" fill="none" xmlns="http://www.w3.org/2000/svg">
<path d="M655.012 259.51C643.646 216.832 609.057 183.629 565.539 174.236L597.512 101.285C602.824 89.1777 614.66 81.3652 627.727 81.3652H802.844C835.266 81.3652 848.332 123.768 821.672 142.479L655.012 259.51Z" fill="#FFC592"/>
<path d="M610.699 119.006C616.012 106.896 627.848 99.084 640.914 99.084H816.031C823.094 99.084 829.236 101.098 834.252 104.439C830.137 91.7149 818.857 81.3672 802.844 81.3672H627.727C614.662 81.3672 602.824 89.1797 597.512 101.287L565.539 174.238C571.91 175.613 578.084 177.514 584.027 179.863L610.699 119.006Z" fill="#EFA873"/>
<path d="M641.785 228.582C647.576 238.098 652.074 248.482 655.01 259.51L660.199 255.865C655.338 245.91 649.123 236.734 641.785 228.582Z" fill="#EFA873"/>
<path d="M271.223 175.955C229.524 187.654 197.121 221.6 187.629 264.158L14.3285 142.479C-12.3316 123.768 0.734772 81.3652 33.1566 81.3652H208.274C221.34 81.3652 233.176 89.1777 238.489 101.285L271.223 175.955Z" fill="#FFC592"/>
<path d="M50.7348 107.779H225.852C232.299 107.779 238.442 109.689 243.653 113.07L238.487 101.287C233.174 89.1797 221.338 81.3672 208.272 81.3672H33.1567C0.734772 81.3672 -12.3316 123.77 14.3285 142.48L17.7738 144.898C16.0512 126.738 29.0531 107.779 50.7348 107.779Z" fill="#EFA873"/>
<path d="M565.539 174.236C609.055 183.631 643.645 216.834 655.012 259.51C657.609 269.254 659.018 279.488 659.018 290.057C659.018 408.572 540.344 476.072 421.811 594.607C303.295 476.074 184.76 408.572 184.76 290.057C184.76 281.15 185.775 272.498 187.631 264.158C197.123 221.6 229.525 187.654 271.225 175.955C281.42 173.084 292.162 171.52 303.295 171.52C362.553 171.52 392.182 201.15 421.811 260.428C451.439 201.15 481.068 171.52 540.344 171.52C548.996 171.521 557.414 172.478 565.539 174.236Z" fill="#EF3E5C"/>
<path d="M214.055 320.777C214.055 311.871 215.07 303.219 216.926 294.879C226.418 252.32 258.82 218.375 300.52 206.676C310.715 203.805 321.457 202.24 332.59 202.24C360.219 202.24 381.406 208.689 399.156 221.574C375.539 188.203 347.758 171.52 303.293 171.52C292.16 171.52 281.418 173.084 271.223 175.955C229.523 187.654 197.121 221.6 187.629 264.158C185.773 272.498 184.758 281.15 184.758 290.057C184.758 355.869 221.32 405.951 274.123 457.775C237.576 416.219 214.055 373.557 214.055 320.777Z" fill="#E42A53"/>
<path d="M499.719 126.541H340.441C335.049 126.541 330.676 122.168 330.676 116.775C330.676 111.381 335.049 107.01 340.441 107.01H499.719C505.113 107.01 509.484 111.381 509.484 116.775C509.484 122.168 505.113 126.541 499.719 126.541Z" fill="#415A6B"/>
<path d="M535.129 73.4355H305.051C299.658 73.4355 295.285 69.0645 295.285 63.6699C295.285 58.2773 299.658 53.9043 305.051 53.9043H535.129C540.523 53.9043 544.895 58.2773 544.895 63.6699C544.895 69.0645 540.521 73.4355 535.129 73.4355Z" fill="#415A6B"/>
<path d="M552.824 20.3496H287.355C281.963 20.3496 277.59 15.9766 277.59 10.584C277.59 5.18945 281.963 0.818359 287.355 0.818359H552.824C558.219 0.818359 562.59 5.18945 562.59 10.584C562.59 15.9766 558.219 20.3496 552.824 20.3496Z" fill="#415A6B"/>
<path d="M446.643 462.791C443.325 462.791 440.09 461.1 438.258 458.047C435.485 453.422 436.985 447.424 441.61 444.648C524.407 394.982 525.364 347.307 525.364 346.832C525.364 341.437 529.735 337.066 535.129 337.066C540.524 337.066 544.895 341.437 544.895 346.832C544.895 349.227 543.834 406.106 451.659 461.398C450.084 462.342 448.352 462.791 446.643 462.791Z" fill="#E42A53"/>
<path d="M74.9727 285.818C60.8438 285.818 49.3477 297.314 49.3477 311.443C49.3477 325.57 60.8438 337.066 74.9727 337.066C89.1133 337.066 100.617 325.57 100.617 311.443C100.617 297.314 89.1133 285.818 74.9727 285.818Z" fill="#EF3E5C"/>
<path d="M55.8574 325.766C55.8574 311.637 67.3535 300.141 81.4824 300.141C89 300.141 95.752 303.41 100.445 308.576C99.0137 295.793 88.1406 285.818 74.9727 285.818C60.8438 285.818 49.3477 297.314 49.3477 311.443C49.3477 318.064 51.8926 324.086 56.0293 328.637C55.9238 327.695 55.8574 326.736 55.8574 325.766Z" fill="#E42A53"/>
<path d="M250.109 553.934C235.98 553.934 224.484 565.428 224.484 579.557C224.484 593.686 235.98 605.182 250.109 605.182C264.25 605.182 275.754 593.686 275.754 579.557C275.754 565.428 264.25 553.934 250.109 553.934Z" fill="#8EAA39"/>
<path d="M230.832 594.605C230.832 580.477 242.328 568.982 256.457 568.982C264.102 568.982 270.955 572.359 275.658 577.678C274.689 564.426 263.615 553.934 250.109 553.934C235.98 553.934 224.484 565.428 224.484 579.557C224.484 586.049 226.932 591.969 230.928 596.49C230.881 595.863 230.832 595.24 230.832 594.605Z" fill="#679519"/>
<path d="M713.939 437.166C699.811 437.166 688.314 448.66 688.314 462.789C688.314 476.918 699.811 488.414 713.939 488.414C728.078 488.414 739.584 476.918 739.584 462.789C739.584 448.66 728.078 437.166 713.939 437.166Z" fill="#FFD15C"/>
<path d="M694.172 474.021C694.172 459.893 705.668 448.398 719.797 448.398C727.385 448.398 734.191 451.727 738.889 456.977C736.244 445.645 726.07 437.168 713.937 437.168C699.809 437.168 688.312 448.662 688.312 462.791C688.312 469.342 690.805 475.309 694.863 479.844C694.428 477.969 694.172 476.025 694.172 474.021Z" fill="#F7B64C"/>
</svg>
