<svg width="782" height="716" viewBox="0 0 782 716" fill="none" xmlns="http://www.w3.org/2000/svg">
<path d="M609.865 161.654C643.891 192.221 665.316 236.928 665.316 286.713C665.316 453.49 501.467 548.451 337.816 715.229C174.164 548.451 10.4922 453.49 10.4922 286.713C10.4922 194.643 83.8125 119.936 174.164 119.936C255.98 119.936 296.898 161.635 337.816 245.014C378.734 161.635 419.633 119.936 501.467 119.936C543.049 119.936 580.998 135.678 609.865 161.654Z" fill="#EF3E5C"/>
<path d="M45.8926 296.947C45.8926 204.877 119.213 130.17 209.564 130.17C220.783 130.17 231.211 130.984 240.998 132.551C221.965 124.152 200.129 119.938 174.164 119.938C83.8125 119.938 10.4922 194.645 10.4922 286.715C10.4922 453.492 174.164 548.453 337.816 715.23C341.996 710.971 346.176 706.77 350.354 702.6C194.664 549.68 45.8926 455.951 45.8926 296.947Z" fill="#E42A53"/>
<path d="M311.353 445.052C308.711 445.052 306.078 443.985 304.152 441.885C300.508 437.909 300.775 431.731 304.752 428.089L729.5 38.7312C733.475 35.0867 739.652 35.3543 743.297 39.3328C746.939 43.3093 746.672 49.4871 742.693 53.1296L317.947 442.485C316.076 444.204 313.711 445.052 311.353 445.052Z" fill="#D30045"/>
<path d="M718.408 161.889C717.625 161.889 716.826 161.795 716.031 161.596L645.25 143.901C641.752 143.026 639.02 140.293 638.145 136.793L620.449 65.9926C619.141 60.7602 622.322 55.4574 627.557 54.1508C632.777 52.8383 638.09 56.0239 639.399 61.2563L655.674 126.372L720.77 142.647C726.002 143.954 729.184 149.256 727.875 154.489C726.766 158.928 722.783 161.889 718.408 161.889Z" fill="#D30045"/>
<path d="M771.514 108.784C770.731 108.784 769.932 108.691 769.139 108.491L698.338 90.7961C694.846 89.923 692.117 87.2023 691.236 83.7141L690.629 81.3117L673.533 12.9094C672.225 7.67696 675.406 2.37422 680.641 1.06758C685.857 -0.246872 691.176 2.93868 692.483 8.17305L708.752 73.2688L773.873 89.5441C779.108 90.8508 782.289 96.1535 780.981 101.386C779.873 105.823 775.889 108.784 771.514 108.784Z" fill="#D30045"/>
<path d="M10.4902 710.521C9.13672 710.521 7.77344 710.239 6.49023 709.665C2.98242 708.089 0.726562 704.601 0.726562 700.755V629.954C0.726562 624.56 5.09766 620.189 10.4922 620.189C15.8848 620.189 20.2578 624.56 20.2578 629.954V679.007L163.281 551.872C167.311 548.288 173.486 548.656 177.068 552.683C180.652 556.714 180.289 562.888 176.258 566.472L16.9805 708.054C15.1543 709.675 12.8379 710.521 10.4902 710.521Z" fill="#E42A53"/>
<path d="M81.293 710.521H10.4922C5.09766 710.521 0.726562 706.15 0.726562 700.756C0.726562 695.361 5.09766 690.99 10.4922 690.99H81.293C86.6855 690.99 91.0586 695.361 91.0586 700.756C91.0586 706.15 86.6836 710.521 81.293 710.521Z" fill="#E42A53"/>
<path d="M81.2813 338.862C76.3242 338.862 72.0781 335.104 71.5742 330.067C65.7617 271.942 77.8125 229.158 107.391 202.908C152.877 162.539 222.07 177.332 224.992 177.981C230.256 179.151 233.578 184.367 232.406 189.631C231.238 194.893 226.027 198.205 220.768 197.049C220.148 196.914 158.217 183.817 120.277 217.586C95.709 239.451 85.8633 276.643 91.0098 328.123C91.5469 333.49 87.6328 338.276 82.2637 338.813C81.9336 338.844 81.6055 338.862 81.2813 338.862Z" fill="#E42A53"/>
</svg>
