<svg width="700" height="700" viewBox="0 0 700 700" fill="none" xmlns="http://www.w3.org/2000/svg">
<path d="M477.852 235.41C472.457 235.41 468.086 231.037 468.086 225.645V85.8789C468.086 49.3047 438.332 19.5508 401.758 19.5508H217.695C181.121 19.5508 151.367 49.3047 151.367 85.8789V225.605C151.367 230.998 146.994 235.371 141.602 235.371C136.207 235.371 131.836 230.998 131.836 225.605V85.8789C131.836 38.5352 170.352 0.0195312 217.695 0.0195312H401.758C449.1 0.0195312 487.617 38.5352 487.617 85.8789V225.645C487.617 231.037 483.246 235.41 477.852 235.41Z" fill="#D04125"/>
<path d="M389.355 108.027H230.078C224.686 108.027 220.312 103.654 220.312 98.2617C220.312 92.8691 224.686 88.4961 230.078 88.4961H389.357C394.752 88.4961 399.123 92.8691 399.123 98.2617C399.123 103.654 394.75 108.027 389.355 108.027Z" fill="#D04125"/>
<path d="M601.738 133.652C621.291 133.652 637.129 149.512 637.129 169.063C637.129 188.613 621.291 204.453 601.738 204.453C582.188 204.453 566.348 188.613 566.348 169.063C566.348 149.512 582.188 133.652 601.738 133.652Z" fill="#FFD15C"/>
<path d="M576.113 191.197C576.113 171.646 591.953 155.787 611.504 155.787C621.537 155.787 630.57 159.98 637.01 166.687C635.783 148.248 620.49 133.652 601.738 133.652C582.188 133.652 566.348 149.512 566.348 169.062C566.348 178.582 570.123 187.203 576.234 193.562C576.18 192.775 576.113 191.996 576.113 191.197Z" fill="#F7B64C"/>
<path d="M477.852 225.645C538.711 239.375 584.043 292.539 584.043 356.016C584.043 489.881 446.758 566.113 309.648 699.979C172.52 566.113 35.4102 489.881 35.4102 356.016C35.4102 292.5 80.7813 239.316 141.602 225.605C151.543 223.379 161.875 222.148 172.52 222.148C241.074 222.148 275.371 255.625 309.648 322.559C343.926 255.625 378.205 222.148 446.758 222.148C457.461 222.148 467.852 223.379 477.852 225.645ZM340.291 477.91C353.906 468.301 362.811 452.459 362.811 434.529C362.811 405.193 339.041 381.426 309.725 381.426C280.387 381.426 256.619 405.195 256.619 434.529C256.619 452.459 265.527 468.301 279.139 477.91L286.131 540.703H333.318L340.291 477.91Z" fill="#EF3E5C"/>
<path d="M80.5664 377.408C80.5664 313.891 125.936 260.707 186.756 246.996C196.699 244.77 207.031 243.539 217.674 243.539C231.031 243.539 243.072 244.828 254.08 247.367C232.625 230.557 206.873 222.146 172.52 222.146C161.875 222.146 151.543 223.377 141.602 225.604C80.7813 239.314 35.4102 292.498 35.4102 356.014C35.4102 489.879 172.52 566.111 309.648 699.977C313.365 696.35 317.082 692.772 320.797 689.223C195.896 574.484 80.5664 500.182 80.5664 377.408Z" fill="#E42A53"/>
<path d="M362.812 434.529C362.812 452.459 353.906 468.301 340.293 477.91L333.322 540.703H286.133L279.141 477.91C265.527 468.301 256.621 452.459 256.621 434.529C256.621 405.193 280.391 381.426 309.727 381.426C339.043 381.426 362.812 405.195 362.812 434.529Z" fill="#FFC592"/>
<path d="M298.998 479.863C285.383 470.254 276.479 454.412 276.479 436.482C276.479 408.77 297.697 386.033 324.781 383.603C320.008 382.191 314.957 381.426 309.727 381.426C280.389 381.426 256.621 405.195 256.621 434.529C256.621 452.459 265.529 468.301 279.141 477.91L286.133 540.703H305.771L298.998 479.863Z" fill="#EFA873"/>
<path d="M88.4941 629.197C108.047 629.197 123.885 645.039 123.885 664.59C123.885 684.141 108.047 699.979 88.4941 699.979C68.9434 699.979 53.1055 684.141 53.1055 664.59C53.1055 645.039 68.9453 629.197 88.4941 629.197Z" fill="#FFC592"/>
<path d="M65.4746 684.121C65.4746 664.57 81.3144 648.729 100.865 648.729C109.207 648.729 116.861 651.631 122.91 656.461C119.234 640.836 105.242 629.197 88.4941 629.197C68.9434 629.197 53.1055 645.039 53.1055 664.59C53.1055 675.797 58.3242 685.766 66.4492 692.25C65.8359 689.639 65.4746 686.922 65.4746 684.121Z" fill="#EFA873"/>
<path d="M35.4102 98.2617C54.9609 98.2617 70.8008 114.102 70.8008 133.652C70.8008 153.203 54.9609 169.062 35.4102 169.062C15.8594 169.062 0.0195312 153.203 0.0195312 133.652C0.0195312 114.102 15.8594 98.2617 35.4102 98.2617Z" fill="#EF3E5C"/>
<path d="M9.78516 153.105C9.78516 133.555 25.625 117.715 45.1758 117.715C55.0273 117.715 63.9297 121.742 70.3438 128.234C67.7305 111.264 53.1152 98.2617 35.4102 98.2617C15.8594 98.2617 0.0195312 114.102 0.0195312 133.652C0.0195312 143.354 3.92578 152.139 10.2441 158.535C9.96875 156.762 9.78516 154.957 9.78516 153.105Z" fill="#E42A53"/>
<path d="M654.824 674.355H442.461C437.066 674.355 432.695 669.984 432.695 664.59C432.695 659.195 437.066 654.824 442.461 654.824H654.824C660.219 654.824 664.59 659.195 664.59 664.59C664.59 669.984 660.219 674.355 654.824 674.355Z" fill="#E42A53"/>
<path d="M690.215 621.271H548.633C543.238 621.271 538.867 616.9 538.867 611.506C538.867 606.111 543.238 601.74 548.633 601.74H690.215C695.609 601.74 699.98 606.111 699.98 611.506C699.98 616.9 695.609 621.271 690.215 621.271Z" fill="#E42A53"/>
</svg>
