<svg width="670" height="820" viewBox="0 0 670 820" fill="none" xmlns="http://www.w3.org/2000/svg">
<path d="M431.502 669.418C462.166 700.061 446.736 750.393 444.529 813.889C381.053 816.078 330.738 831.467 300.096 800.824C283.182 783.91 284.158 755.471 302.283 737.328C318.709 720.922 334.588 720.358 358.123 727.486C351.014 703.949 351.562 688.068 367.986 671.643C386.15 653.481 414.588 652.484 431.502 669.418Z" fill="#EF3E5C"/>
<path d="M431.502 669.418C414.588 652.484 386.15 653.481 367.984 671.643C362.189 677.438 358.406 683.17 356.203 689.19C374.203 675.967 398.711 676.647 413.924 691.879C441.02 718.955 432.129 761.414 428.17 814.731C433.52 814.375 438.971 814.078 444.529 813.887C446.736 750.393 462.166 700.063 431.502 669.418Z" fill="#E42A53"/>
<path d="M306.246 80.2776C324.412 98.4416 325.388 126.879 308.474 143.793C277.83 174.457 227.498 159.028 164.002 156.821C161.793 93.344 146.402 43.0315 177.066 12.387C193.98 -4.5271 222.418 -3.55055 240.543 14.594C256.968 31.0002 257.515 46.8792 250.406 70.4143C273.943 63.3049 289.822 63.8518 306.246 80.2776Z" fill="#EF3E5C"/>
<path d="M190.279 31.7639C206.857 15.1858 234.482 15.8381 252.642 32.9553C250.492 26.6331 246.605 20.6487 240.545 14.594C222.42 -3.55055 193.982 -4.5271 177.068 12.387C146.404 43.0315 161.795 93.344 164.004 156.821C168.127 156.963 172.191 157.164 176.203 157.403C172.365 102.778 162.709 59.3166 190.279 31.7639Z" fill="#E42A53"/>
<path d="M647.244 197.017C678.826 283.403 608.084 373.462 548.279 493.288C482.283 464.849 419.393 444.987 370.426 419.321C379.273 404.341 385.252 388.228 387.693 370.396C394.586 320.083 356.988 273.345 303.65 266.04C296.58 265.064 289.957 264.673 283.729 264.81C293.963 240.923 314.256 220.825 341.385 210.903C387.07 194.185 417.813 207.427 456.465 242.29C463.514 190.728 478.477 160.786 524.158 144.067C574.725 125.591 629.803 149.321 647.244 197.017Z" fill="#EF3E5C"/>
<path d="M514.877 173.423C565.445 154.946 620.523 178.677 637.965 226.372C648.207 254.39 647.68 282.794 640.26 312.474C655.486 271.931 660.814 234.134 647.246 197.017C629.805 149.321 574.727 125.591 524.158 144.067C485.02 158.392 468.439 182.437 460.057 221.452C470.209 199.097 486.689 183.737 514.877 173.423Z" fill="#E42A53"/>
<path d="M303.65 266.04C356.99 273.345 394.588 320.083 387.694 370.396C385.252 388.228 379.274 404.341 370.426 419.321C328.121 397.192 296.207 370.747 281.559 330.708C273.512 308.657 274.899 285.337 283.727 264.81C289.957 264.673 296.58 265.064 303.65 266.04Z" fill="#FFECB2"/>
<path d="M303.045 353.071C294.998 331.021 296.385 307.7 305.213 287.173C311.441 287.036 318.064 287.427 325.135 288.403C343.058 290.857 359.189 297.78 372.467 307.778C357.427 285.946 332.92 270.048 303.65 266.04C296.58 265.064 289.957 264.673 283.728 264.81C274.898 285.337 273.513 308.657 281.56 330.708C289.924 353.569 303.935 371.987 322.275 387.712C314.244 377.355 307.746 365.921 303.045 353.071Z" fill="#EFD99E"/>
<path d="M370.428 419.319C334.099 480.942 249.256 523.284 161.641 585.979C77.7323 481.624 -10.547 408.674 1.95105 317.542C8.828 267.229 57.6151 232.327 110.838 239.612C159.043 246.213 180.017 272.307 197.871 321.174C223.769 285.1 247.4 265.628 283.73 264.807C274.9 285.335 273.516 308.655 281.562 330.706C296.209 370.747 328.123 397.192 370.428 419.319Z" fill="#FFD15C"/>
<path d="M34.1776 332.495C41.0546 282.182 89.8417 247.28 143.064 254.565C148.158 255.262 152.933 256.192 157.447 257.329C145.281 248.112 130.277 242.274 110.838 239.612C57.6151 232.327 8.828 267.229 1.95105 317.542C-10.547 408.674 77.7323 481.624 161.641 585.979C165.846 582.969 170.045 580.02 174.232 577.098C96.8202 485.104 22.6503 416.532 34.1776 332.495Z" fill="#F4C253"/>
<path d="M617.301 690.785C615.906 690.785 614.504 690.489 613.189 689.877L522.389 647.686C517.496 645.416 515.373 639.606 517.646 634.715C519.92 629.821 525.732 627.699 530.617 629.973L600.035 662.227L535.203 484.92C533.351 479.854 535.957 474.246 541.021 472.393C546.084 470.547 551.695 473.145 553.547 478.213L626.476 677.664C627.832 681.375 626.82 685.537 623.912 688.207C622.07 689.901 619.701 690.785 617.301 690.785Z" fill="#EF3E5C"/>
<path d="M617.297 690.79C615.92 690.79 614.519 690.497 613.187 689.878C608.297 687.609 606.172 681.798 608.443 676.907L650.611 586.107C652.883 581.216 658.691 579.091 663.584 581.361C668.475 583.634 670.6 589.441 668.328 594.335L626.16 685.136C624.508 688.694 620.98 690.79 617.297 690.79Z" fill="#EF3E5C"/>
<path d="M132.822 798.344C132.379 798.344 131.933 798.313 131.482 798.253C126.14 797.52 122.402 792.596 123.135 787.251L151.963 576.842C152.695 571.499 157.607 567.757 162.965 568.493C168.306 569.225 172.045 574.149 171.312 579.495L142.484 789.903C141.814 794.798 137.627 798.344 132.822 798.344Z" fill="#F4C253"/>
<path d="M187.762 730.085C187.24 730.085 186.713 730.044 186.18 729.956L97.6837 715.54C92.3595 714.675 88.7482 709.657 89.6134 704.333C90.4806 699.011 95.4923 695.392 100.822 696.265L189.32 710.681C194.645 711.546 198.254 716.564 197.389 721.888C196.609 726.679 192.465 730.085 187.762 730.085Z" fill="#F4C253"/>
<path d="M170.047 490.123C168.186 490.123 166.305 489.59 164.639 488.478C110.023 452.07 74.3203 381.535 72.8262 378.551C70.4141 373.728 72.3672 367.861 77.1894 365.449C82.0078 363.035 87.8769 364.988 90.291 369.81C90.6348 370.496 125.23 438.736 175.471 472.228C179.959 475.219 181.17 481.285 178.18 485.771C176.299 488.594 173.201 490.123 170.047 490.123Z" fill="#F4C253"/>
<path d="M524.021 383.949C521.523 383.949 519.023 382.996 517.117 381.09C513.302 377.277 513.303 371.094 517.115 367.279C565.976 318.4 567.342 286 567.342 285.688C567.342 280.295 571.713 275.922 577.107 275.922C582.502 275.922 586.873 280.295 586.873 285.688C586.873 287.297 586.238 325.758 530.927 381.088C529.021 382.994 526.523 383.949 524.021 383.949Z" fill="#E42A53"/>
</svg>
