<svg width="692" height="744" viewBox="0 0 692 744" fill="none" xmlns="http://www.w3.org/2000/svg">
<path d="M691.098 178.836C691.098 258.484 656.703 322.822 603.305 385.498C537.016 463.332 441.449 538.605 345.902 637.471C250.375 538.625 154.885 463.352 88.6562 385.559C35.2773 322.84 0.902344 258.504 0.902344 178.836C0.902344 80.3027 78.1699 0.339844 173.402 0.339844C259.652 0.339844 302.777 44.9707 345.902 134.207C389.027 44.9707 432.152 0.339844 518.4 0.339844C613.832 0.339844 691.098 80.3008 691.098 178.836Z" fill="#EF3E5C"/>
<path d="M144.701 407.197C91.3223 344.482 56.9453 280.145 56.9453 200.477C56.9453 101.943 134.213 21.9805 229.445 21.9805C241.621 21.9805 252.914 22.9043 263.492 24.6836C239.063 8.47462 210.156 0.339844 173.402 0.339844C78.168 0.339844 0.902344 80.3008 0.902344 178.836C0.902344 258.504 35.2793 322.84 88.6582 385.557C154.887 463.35 250.377 538.623 345.904 637.469C351.611 631.564 357.318 625.748 363.02 620.006C280.969 539.738 201.916 474.402 144.701 407.197Z" fill="#E42A53"/>
<path d="M88.6562 385.555C154.885 463.348 250.375 538.621 345.902 637.467C441.449 538.602 537.016 463.328 603.305 385.494C636.389 422.115 655.707 466.18 655.707 513.58C655.707 640.652 517.055 743.658 346 743.658C174.945 743.658 36.293 640.654 36.293 513.582C36.293 466.199 55.5898 422.158 88.6562 385.555Z" fill="#FFD15C"/>
<path d="M42.0918 551.018C42.0918 503.635 61.3887 459.592 94.457 422.99C160.686 500.783 256.176 576.057 351.703 674.902C447.25 576.037 542.816 500.764 609.105 422.93C631.402 447.609 647.434 475.672 655.525 505.855C653.549 461.395 634.586 420.119 603.307 385.494C537.018 463.328 441.451 538.602 345.904 637.467C250.377 538.621 154.887 463.348 88.6582 385.555C55.5898 422.156 36.293 466.199 36.293 513.582C36.293 529.062 38.3672 544.182 42.2891 558.803C42.1719 556.217 42.0918 553.625 42.0918 551.018Z" fill="#EAB849"/>
<path d="M514.125 278.66L399.613 440.947L351.801 508.699L419.281 278.66H514.125Z" fill="#FFD15C"/>
<path d="M419.281 278.66L413.836 297.215H483.207L368.695 459.502L364.48 465.475L351.801 508.699L399.613 440.947L514.125 278.66H419.281Z" fill="#EAB94E"/>
<path d="M462.406 195.027L514.125 278.66H419.281L462.406 195.027Z" fill="#FBB14F"/>
<path d="M462.406 223.836L496.311 278.66H514.125L462.406 195.027L419.281 278.66H434.135L462.406 223.836Z" fill="#E89D43"/>
<path d="M462.406 195.027L419.281 278.66L341.684 195.027H462.406Z" fill="#FFECB2"/>
<path d="M453.846 211.629L462.406 195.027H341.684L357.088 211.629H453.846Z" fill="#EDD89D"/>
<path d="M341.684 195.027L419.281 278.66H272.717L341.684 195.027Z" fill="#F78F4B"/>
<path d="M344.613 219.93L399.104 278.66H419.281L341.684 195.027L272.717 278.66H296.182L344.613 219.93Z" fill="#E27940"/>
<path d="M341.684 195.027L272.717 278.66L229.613 195.027H341.684Z" fill="#FFECB2"/>
<path d="M255.492 213.582H326.383L341.684 195.027H229.613L272.717 278.66L282.758 266.486L255.492 213.582Z" fill="#EDD89D"/>
<path d="M229.613 195.027L272.717 278.66H177.875L229.613 195.027Z" fill="#FBB14F"/>
<path d="M236.938 214.07L270.227 278.66H272.717L229.613 195.027L177.875 278.66H196.979L236.938 214.07Z" fill="#E89D43"/>
<path d="M272.717 278.66L351.801 508.699L300.746 441.16L177.875 278.66H272.717Z" fill="#FFD15C"/>
<path d="M331.508 458.25L208.637 295.75H278.594L272.717 278.66H177.875L300.746 441.16L351.801 508.699L336.918 465.406L331.508 458.25Z" fill="#EAB94E"/>
<path d="M419.281 278.66L351.801 508.699L272.717 278.66H419.281Z" fill="#FBB14F"/>
<path d="M296.154 298.191H413.551L419.281 278.66H272.717L351.801 508.699L359.5 482.451L296.154 298.191Z" fill="#EAA047"/>
</svg>
