<svg width="772" height="772" viewBox="0 0 772 772" fill="none" xmlns="http://www.w3.org/2000/svg">
<path d="M36.0195 496.156C55.5508 496.156 71.4102 511.996 71.4102 531.547C71.4102 551.098 55.5508 566.938 36.0195 566.938C16.4687 566.938 0.609375 551.098 0.609375 531.547C0.609375 511.996 16.4687 496.156 36.0195 496.156Z" fill="#FFD15C"/>
<path d="M8.53906 552.707C8.53906 533.156 24.3965 517.316 43.9492 517.316C54.9902 517.316 64.8555 522.385 71.3477 530.318C70.6953 511.342 55.1348 496.156 36.0176 496.156C16.4668 496.156 0.607422 511.996 0.607422 531.547C0.607422 540.043 3.60742 547.834 8.59961 553.934C8.58789 553.521 8.53906 553.121 8.53906 552.707Z" fill="#EDBD51"/>
<path d="M602.348 620.043C621.879 620.043 637.738 635.883 637.738 655.434C637.738 674.984 621.879 690.824 602.348 690.824C582.797 690.824 566.938 674.984 566.938 655.434C566.938 635.883 582.797 620.043 602.348 620.043Z" fill="#D30045"/>
<path d="M574.75 675.615C574.75 656.064 590.609 640.225 610.16 640.225C621.246 640.225 631.141 645.336 637.631 653.324C636.533 634.762 621.166 620.043 602.348 620.043C582.797 620.043 566.938 635.883 566.938 655.434C566.938 663.885 569.91 671.637 574.857 677.721C574.814 677.021 574.75 676.326 574.75 675.615Z" fill="#BF0448"/>
<path d="M389.965 0.609375C409.516 0.609375 425.355 16.4687 425.355 36.0215C425.355 55.5527 409.516 71.4102 389.965 71.4102C370.412 71.4102 354.574 55.5527 354.574 36.0215C354.574 16.4687 370.414 0.609375 389.965 0.609375Z" fill="#EF3E5C"/>
<path d="M361.41 55.877C361.41 36.3262 377.25 20.4668 396.803 20.4668C408.514 20.4668 418.861 26.1816 425.303 34.9473C424.729 15.8965 409.152 0.609375 389.965 0.609375C370.412 0.609375 354.574 16.4687 354.574 36.0215C354.574 43.8535 357.15 51.0703 361.463 56.9355C361.455 56.5801 361.41 56.2344 361.41 55.877Z" fill="#E42A53"/>
<path d="M257.795 425.416C238.908 390.904 220.041 373.656 182.289 373.656C166.449 373.656 151.74 378.129 139.594 385.766C108.246 347.057 89.1055 306.273 89.1055 257.955C89.1055 184.281 154.477 124.498 235.061 124.498C308.049 124.498 344.533 157.857 381.037 224.596C417.521 157.857 454.006 124.498 526.994 124.498C607.756 124.498 673.125 184.281 673.125 257.955C673.125 391.412 526.994 467.408 381.035 600.885C364.531 585.787 348.045 571.451 331.758 557.682C375.9 520.885 408.85 488.268 408.85 442.682C408.85 404.576 375.039 373.656 333.283 373.656C295.531 373.656 276.664 390.904 257.795 425.416Z" fill="#EF3E5C"/>
<path d="M121.332 281.156C121.332 207.482 186.703 147.699 267.287 147.699C294.916 147.699 317.307 152.488 336.455 162.051C310.75 137.027 279.754 124.496 235.061 124.496C154.475 124.496 89.1055 184.279 89.1055 257.953C89.1055 306.271 108.246 347.055 139.594 385.764C143.174 383.514 147 381.574 150.988 379.908C132.211 349.713 121.332 317.576 121.332 281.156Z" fill="#E42A53"/>
<path d="M182.289 373.656C220.041 373.656 238.908 390.904 257.795 425.416C276.662 390.904 295.529 373.656 333.283 373.656C375.041 373.656 408.85 404.576 408.85 442.682C408.85 488.268 375.9 520.885 331.758 557.682C309.062 576.588 283.418 596.588 257.793 620.045C182.287 551.021 106.797 511.705 106.797 442.682C106.797 419.068 119.785 398.229 139.59 385.766C151.742 378.129 166.449 373.656 182.289 373.656Z" fill="#D30045"/>
<path d="M142.934 450.768C142.934 427.154 155.922 406.314 175.727 393.852C187.875 386.217 202.582 381.742 218.422 381.742C218.729 381.742 219.01 381.768 219.314 381.77C209.131 376.389 197.197 373.656 182.289 373.656C166.449 373.656 151.74 378.129 139.594 385.766C119.789 398.229 106.801 419.068 106.801 442.682C106.801 511.705 182.289 551.021 257.797 620.045C262.264 615.955 266.725 612.008 271.178 608.115C203.975 550.891 142.934 512.832 142.934 450.768Z" fill="#BF0448"/>
<path d="M549.234 364.34C547.195 364.34 545.138 363.705 543.382 362.387C539.068 359.151 538.193 353.029 541.429 348.715C590.091 283.836 559.517 220.024 558.191 217.338C555.808 212.51 557.775 206.652 562.595 204.258C567.427 201.86 573.263 203.811 575.67 208.623C577.226 211.733 613.136 285.66 557.054 360.434C555.136 362.992 552.203 364.34 549.234 364.34Z" fill="#E42A53"/>
<path d="M425.355 700.59H71.4102C66.0176 700.59 61.6445 696.219 61.6445 690.824C61.6445 685.43 66.0176 681.059 71.4102 681.059H425.355C430.75 681.059 435.121 685.43 435.121 690.824C435.121 696.219 430.75 700.59 425.355 700.59Z" fill="#EF3E5C"/>
<path d="M761.625 771.391H336.879C331.486 771.391 327.113 767.02 327.113 761.625C327.113 756.23 331.486 751.859 336.879 751.859H761.625C767.02 751.859 771.391 756.23 771.391 761.625C771.391 767.02 767.02 771.391 761.625 771.391Z" fill="#EF3E5C"/>
</svg>
