<svg width="816" height="762" viewBox="0 0 816 762" fill="none" xmlns="http://www.w3.org/2000/svg">
<path d="M611.34 0.492188C723.918 0.492188 815.051 96 815.051 213.695C815.051 426.898 611.34 548.305 407.883 761.508C204.426 548.305 0.949219 426.898 0.949219 213.695C0.949219 96 92.082 0.492188 204.426 0.492188C306.145 0.492188 357.023 53.793 407.883 160.395C458.742 53.793 509.621 0.492188 611.34 0.492188Z" fill="#EF3E5C"/>
<path d="M61.9824 244.187C61.9824 126.49 153.115 30.9844 265.459 30.9844C286.197 30.9844 304.793 33.2383 321.736 37.6699C290.643 12.9101 253.447 0.492188 204.426 0.492188C92.082 0.492188 0.949219 96 0.949219 213.695C0.949219 426.898 204.426 548.305 407.883 761.508C413.016 756.129 418.146 750.824 423.277 745.559C236.117 560.1 61.9824 441.418 61.9824 244.187Z" fill="#E42A53"/>
<path d="M688.762 205.981C719.855 237.096 714.25 293.11 676.242 331.117C638.234 369.145 582.201 374.75 551.105 343.637C519.992 312.543 525.598 256.508 563.606 218.5C601.633 180.492 657.648 174.887 688.762 205.981Z" fill="#FFD15C"/>
<path d="M569.25 356.005C538.137 324.911 543.742 268.878 581.75 230.87C612.879 199.757 656.055 190.374 687.764 205.042C656.467 175.031 601.234 180.888 563.606 218.499C525.598 256.507 519.992 312.542 551.105 343.636C556.756 349.288 563.234 353.712 570.272 356.966C569.934 356.642 569.58 356.339 569.25 356.005Z" fill="#EFBE52"/>
<path d="M270.09 218.5C308.098 256.508 313.703 312.543 282.59 343.637C251.496 374.75 195.461 369.145 157.453 331.117C119.445 293.11 113.84 237.094 144.934 205.981C176.047 174.887 232.063 180.492 270.09 218.5Z" fill="#FFD15C"/>
<path d="M179.889 331.117C141.881 293.109 136.276 237.094 167.369 205.98C178.281 195.076 192.262 188.703 207.449 186.64C183.902 183.627 161.069 189.855 144.934 205.98C113.84 237.096 119.445 293.109 157.453 331.117C182.129 355.806 214.399 366.81 242.514 362.99C220.656 360.191 198.186 349.424 179.889 331.117Z" fill="#EFBE52"/>
<path d="M660.5 208.13C677.785 225.415 677.785 253.421 660.5 270.708C643.234 287.974 615.207 287.974 597.941 270.708C580.656 253.421 580.656 225.415 597.941 208.13C615.207 190.845 643.234 190.845 660.5 208.13Z" fill="#743629"/>
<path d="M607.678 227.661C624.943 210.374 652.971 210.374 670.236 227.661C671.02 228.444 671.729 229.272 672.44 230.098C670.713 222.051 666.756 214.385 660.5 208.129C643.234 190.842 615.207 190.842 597.941 208.129C581.441 224.629 580.733 250.881 595.738 268.268C592.693 254.081 596.65 238.692 607.678 227.661Z" fill="#662C22"/>
<path d="M232.531 205.98C249.816 223.268 249.816 251.273 232.531 268.559C215.266 285.826 187.238 285.826 169.973 268.559C152.687 251.273 152.687 223.268 169.973 205.98C187.238 188.715 215.266 188.715 232.531 205.98Z" fill="#743629"/>
<path d="M186.248 221.605C200.527 207.326 222.148 204.893 238.975 214.232C237.184 211.303 235.066 208.516 232.531 205.98C215.266 188.715 187.238 188.715 169.973 205.98C152.687 223.268 152.687 251.273 169.973 268.559C172.959 271.547 176.285 273.98 179.805 275.934C169.381 258.893 171.498 236.355 186.248 221.605Z" fill="#662C22"/>
<path d="M416.848 434.088H531.885C531.885 497.193 479.951 549.125 416.848 549.125C353.742 549.125 301.809 497.191 301.809 434.088H416.848Z" fill="#FFC592"/>
<path d="M325.896 453.619H440.936H530.17C531.275 447.262 531.887 440.742 531.887 434.088H416.848H301.809C301.809 475.545 324.223 512.174 357.492 532.434C337.961 511.777 325.896 484.004 325.896 453.619Z" fill="#EFA873"/>
<path d="M736.438 700.473H470.988C465.594 700.473 461.223 696.102 461.223 690.707C461.223 685.312 465.594 680.941 470.988 680.941H736.438C741.832 680.941 746.203 685.312 746.203 690.707C746.203 696.102 741.832 700.473 736.438 700.473Z" fill="#EF3E5C"/>
<path d="M667.727 611.998H561.535C556.141 611.998 551.77 607.627 551.77 602.232C551.77 596.838 556.141 592.467 561.535 592.467H667.727C673.121 592.467 677.492 596.838 677.492 602.232C677.492 607.627 673.121 611.998 667.727 611.998Z" fill="#EF3E5C"/>
<path d="M348.918 700.473H65.7734C60.3809 700.473 56.0078 696.102 56.0078 690.707C56.0078 685.312 60.3809 680.941 65.7734 680.941H348.918C354.311 680.941 358.684 685.312 358.684 690.707C358.684 696.102 354.311 700.473 348.918 700.473Z" fill="#E42A53"/>
<path d="M254.465 611.998H148.273C142.881 611.998 138.508 607.627 138.508 602.232C138.508 596.838 142.881 592.467 148.273 592.467H254.465C259.857 592.467 264.23 596.838 264.23 602.232C264.23 607.627 259.857 611.998 254.465 611.998Z" fill="#E42A53"/>
</svg>
