<svg width="762" height="804" viewBox="0 0 762 804" fill="none" xmlns="http://www.w3.org/2000/svg">
<path d="M692.484 19.9297H73.0703C67.6777 19.9297 63.3047 15.5566 63.3047 10.1641C63.3047 4.77148 67.6777 0.398438 73.0703 0.398438H692.484C697.879 0.398438 702.25 4.77148 702.25 10.1641C702.25 15.5566 697.879 19.9297 692.484 19.9297Z" fill="#EF3E5C"/>
<path d="M179.232 108.429C177.523 108.429 175.791 107.979 174.217 107.034C169.592 104.259 168.094 98.2607 170.869 93.6357L223.974 5.13958C226.75 0.516533 232.748 -0.983468 237.373 1.79192C241.998 4.56731 243.496 10.5654 240.721 15.1904L187.615 103.686C185.785 106.737 182.551 108.429 179.232 108.429Z" fill="#E42A53"/>
<path d="M603.998 108.428C600.68 108.428 597.445 106.736 595.613 103.684L542.527 15.1874C539.754 10.5624 541.254 4.56439 545.879 1.789C550.508 -0.986392 556.502 0.517514 559.277 5.13861L612.363 93.6347C615.137 98.2597 613.637 104.258 609.012 107.033C607.439 107.978 605.707 108.428 603.998 108.428Z" fill="#EF3E5C"/>
<path d="M542.641 237.937C565.473 260.769 550.885 312.371 510.063 353.191C482.348 380.925 449.633 396.55 424.34 396.55C412.424 396.55 402.152 393.074 394.828 385.75C387.504 378.425 384.045 368.171 384.045 356.238C384.045 330.964 399.65 298.25 427.385 270.515C468.207 229.695 519.809 215.125 542.641 237.937Z" fill="#FFC230"/>
<path d="M401.391 373.166C401.391 347.892 416.996 315.177 444.73 287.443C480.137 252.039 523.639 236.4 549.459 247.753C547.754 244.085 545.488 240.787 542.639 237.939C519.809 215.127 468.207 229.697 427.385 270.517C399.65 298.252 384.045 330.966 384.045 356.24C384.045 368.173 387.504 378.427 394.828 385.752C397.861 388.785 401.422 391.121 405.371 392.859C402.699 387.107 401.391 380.455 401.391 373.166Z" fill="#DD9F22"/>
<path d="M510.062 439.91C550.883 480.73 565.473 532.314 542.641 555.145C519.811 577.977 468.209 563.406 427.387 522.586C406.176 501.375 392.074 477.273 386.605 455.789L385.746 423.406C387.426 417.178 390.434 411.728 394.828 407.334C402.152 400.01 412.406 396.553 424.34 396.553C449.613 396.551 482.328 412.176 510.062 439.91Z" fill="#F78F4B"/>
<path d="M510.062 439.91C550.883 480.73 565.473 532.314 542.641 555.145C519.811 577.977 468.209 563.406 427.387 522.586C406.176 501.375 392.074 477.273 386.605 455.789L385.746 423.406C387.426 417.178 390.434 411.728 394.828 407.334C402.152 400.01 412.406 396.553 424.34 396.553C449.613 396.551 482.328 412.176 510.062 439.91Z" fill="#E27B42"/>
<path d="M530.894 449.676C503.16 421.941 470.445 406.318 445.172 406.318C433.238 406.318 422.984 409.775 415.66 417.1C411.266 421.494 408.258 426.943 406.578 433.172L407.438 465.555C412.906 487.039 427.008 511.141 448.219 532.352C489.039 573.172 540.641 587.742 563.473 564.91C586.305 542.08 571.715 490.498 530.894 449.676Z" fill="#F78F4B"/>
<path d="M373.246 407.332C380.57 414.656 384.027 424.91 384.027 436.842C384.027 462.135 368.422 494.85 340.687 522.584C299.867 563.404 248.266 577.975 225.434 555.143C202.602 532.312 217.191 480.728 258.012 439.908C285.746 412.174 318.461 396.549 343.734 396.549C355.668 396.551 365.922 400.008 373.246 407.332Z" fill="#FFC230"/>
<path d="M265.758 462.697C293.492 434.963 326.207 419.338 351.48 419.338C363.414 419.338 373.668 422.797 380.992 430.121C382.051 431.18 383.006 432.316 383.904 433.494C383.303 423 379.873 413.961 373.246 407.334C365.922 400.01 355.668 396.553 343.734 396.553C318.461 396.553 285.746 412.178 258.012 439.912C219.1 478.826 204.051 527.498 222.504 551.74C221.047 526.053 236.785 491.67 265.758 462.697Z" fill="#DD9F22"/>
<path d="M383.832 351.121L384.008 357.781C383.715 369.05 380.258 378.738 373.246 385.75C365.922 393.074 355.648 396.55 343.734 396.55C318.441 396.55 285.726 380.925 258.012 353.191C217.191 312.371 202.602 260.769 225.434 237.937C248.266 215.125 299.867 229.695 340.687 270.515C366.586 296.414 381.898 326.648 383.832 351.121Z" fill="#F78F4B"/>
<path d="M227.68 258.771C250.512 235.959 302.113 250.529 342.934 291.349C364.447 312.863 378.623 337.357 383.928 359.064C383.949 358.634 383.996 358.216 384.008 357.781L383.832 351.121C381.898 326.648 366.586 296.414 340.688 270.515C299.867 229.695 248.266 215.125 225.434 237.937C214.633 248.738 212.217 265.982 216.982 285.474C217.494 274.753 220.947 265.505 227.68 258.771Z" fill="#E27B42"/>
<path d="M190.512 90.8477C285.707 90.8477 333.305 140.77 380.883 240.613C428.48 140.77 476.078 90.8477 571.273 90.8477C582.25 90.8477 593.031 91.8242 603.5 93.6992C693.441 109.734 761.859 191.785 761.859 290.516C761.859 490.203 571.273 603.912 380.883 803.602C190.512 603.914 0.140625 490.203 0.140625 290.516C0.140625 184.246 79.3984 97.3125 179.262 91.1992C182.973 90.9648 186.723 90.8477 190.512 90.8477ZM427.387 270.516C399.652 298.25 384.047 330.965 384.047 356.238H384.027C384.027 354.578 383.969 352.859 383.832 351.121C381.898 326.648 366.586 296.414 340.688 270.516C299.867 229.695 248.266 215.125 225.434 237.938C202.602 260.77 217.191 312.371 258.012 353.191C285.727 380.926 318.441 396.551 343.734 396.551C318.461 396.551 285.746 412.176 258.012 439.91C217.191 480.73 202.602 532.314 225.434 555.145C248.266 577.977 299.867 563.406 340.688 522.586C368.422 494.852 384.027 462.137 384.027 436.844H384.047C384.047 442.803 384.906 449.17 386.607 455.789C392.076 477.273 406.178 501.375 427.389 522.586C468.209 563.406 519.811 577.977 542.643 555.145C565.475 532.314 550.887 480.73 510.064 439.91C482.33 412.176 449.615 396.551 424.342 396.551C449.633 396.551 482.348 380.926 510.064 353.191C550.885 312.371 565.475 260.77 542.643 237.938C519.809 215.125 468.207 229.695 427.387 270.516Z" fill="#EF3E5C"/>
<path d="M45.0625 314.045C45.0625 207.775 124.32 120.842 224.184 114.729C227.895 114.494 231.645 114.377 235.434 114.377C258.672 114.377 279.057 117.375 297.314 123.324C268.828 101.682 234.832 90.8477 190.512 90.8477C186.723 90.8477 182.973 90.9648 179.262 91.1992C79.3984 97.3125 0.140625 184.246 0.140625 290.516C0.140625 490.203 190.512 603.912 380.883 803.602C384.514 799.795 388.143 796.027 391.773 792.281C213.398 613.576 45.0625 501.818 45.0625 314.045Z" fill="#E42A53"/>
<path d="M391.621 654.09C386.35 654.09 382.006 649.889 381.865 644.585L371.123 240.874C370.979 235.483 375.233 230.995 380.625 230.852C386.037 230.657 390.504 234.961 390.649 240.354L401.391 644.067C401.533 649.458 397.281 653.946 391.889 654.088C391.797 654.088 391.709 654.09 391.621 654.09Z" fill="#E42A53"/>
<path d="M603.988 406.318H161.547C156.154 406.318 151.781 401.945 151.781 396.553C151.781 391.16 156.154 386.787 161.547 386.787H603.988C609.383 386.787 613.754 391.16 613.754 396.553C613.754 401.945 609.383 406.318 603.988 406.318Z" fill="#E42A53"/>
</svg>
