<svg width="804" height="828" viewBox="0 0 804 828" fill="none" xmlns="http://www.w3.org/2000/svg">
<path d="M636.004 327.98C630.607 327.979 626.236 323.605 626.238 318.213L626.279 139.813C626.281 134.42 630.652 130.049 636.045 130.049H636.047C641.441 130.051 645.812 134.424 645.811 139.816L645.77 318.217C645.768 323.609 641.395 327.98 636.004 327.98Z" fill="#415A6B"/>
<path d="M636.004 567.939C630.609 567.939 626.238 563.568 626.238 558.174V448.799C626.238 443.404 630.609 439.033 636.004 439.033C641.398 439.033 645.77 443.404 645.77 448.799V558.174C645.77 563.568 641.396 567.939 636.004 567.939Z" fill="#415A6B"/>
<path d="M369.187 198.43C363.793 198.428 359.422 194.057 359.422 188.662L359.441 10.2637C359.443 4.87109 363.814 0.5 369.207 0.5C369.209 0.5 369.207 0.5 369.209 0.5C374.602 0.5 378.975 4.87305 378.973 10.2656L378.953 188.664C378.953 194.059 374.58 198.43 369.187 198.43Z" fill="#415A6B"/>
<path d="M369.188 442.277C363.795 442.277 359.422 437.906 359.422 432.512V323.137C359.422 317.744 363.795 313.371 369.188 313.371C374.582 313.371 378.953 317.744 378.953 323.137V432.512C378.953 437.904 374.582 442.277 369.188 442.277Z" fill="#415A6B"/>
<path d="M369.188 688.273C363.795 688.273 359.422 683.902 359.422 678.508V570.91C359.422 565.516 363.795 561.145 369.188 561.145C374.582 561.145 378.953 565.516 378.953 570.91V678.508C378.953 683.9 374.582 688.273 369.188 688.273Z" fill="#415A6B"/>
<path d="M105.068 320.168C99.6719 320.166 95.3008 315.793 95.3027 310.4L95.3418 132C95.3437 126.607 99.7148 122.236 105.107 122.236C105.109 122.236 105.109 122.236 105.109 122.236C110.504 122.238 114.875 126.611 114.873 132.004L114.834 310.404C114.832 315.797 110.459 320.168 105.068 320.168Z" fill="#415A6B"/>
<path d="M105.068 562.08C99.6738 562.08 95.3027 557.709 95.3027 552.314V442.939C95.3027 437.545 99.6738 433.174 105.068 433.174C110.461 433.174 114.834 437.545 114.834 442.939V552.314C114.834 557.709 110.459 562.08 105.068 562.08Z" fill="#415A6B"/>
<path d="M174.539 731.965C194.09 731.965 209.93 747.803 209.93 767.354C209.93 786.906 194.09 802.744 174.539 802.744C154.988 802.744 139.148 786.906 139.148 767.354C139.148 747.803 154.988 731.965 174.539 731.965Z" fill="#EF3E5C"/>
<path d="M145.984 787.861C145.984 768.311 161.824 752.473 181.375 752.473C193.107 752.473 203.473 758.201 209.912 766.988C209.711 747.609 193.965 731.965 174.539 731.965C154.988 731.965 139.148 747.803 139.148 767.353C139.148 775.172 141.713 782.373 146.004 788.229C146.002 788.105 145.984 787.984 145.984 787.861Z" fill="#E42A53"/>
<path d="M157.469 273.584C186.455 273.584 209.93 295.576 209.93 322.666C209.93 371.77 157.469 399.717 105.068 448.799C52.6855 399.717 0.283203 371.77 0.283203 322.666C0.283203 295.576 23.7598 273.584 52.6855 273.584C78.877 273.584 91.9824 285.85 105.068 310.402C118.174 285.852 131.279 273.584 157.469 273.584Z" fill="#EF3E5C"/>
<path d="M34.3242 332.432C34.3242 306.025 56.6309 284.475 84.5449 283.4C76.2051 276.873 66.1934 273.584 52.6836 273.584C23.7559 273.584 0.28125 295.576 0.28125 322.666C0.28125 371.77 52.6836 399.717 105.066 448.799C108.877 445.23 112.686 441.783 116.477 438.422C72.6309 400.939 34.3242 374.412 34.3242 332.432Z" fill="#E42A53"/>
<path d="M688.389 281.396C717.373 281.396 740.848 303.389 740.848 330.479C740.848 379.582 688.389 407.529 635.986 456.611C583.604 407.529 531.201 379.582 531.201 330.479C531.201 303.389 554.678 281.396 583.603 281.396C609.795 281.396 622.9 293.662 635.986 318.215C649.092 293.664 662.197 281.396 688.389 281.396Z" fill="#EF3E5C"/>
<path d="M565.242 340.244C565.242 313.838 587.549 292.287 615.463 291.213C607.123 284.686 597.111 281.396 583.602 281.396C554.674 281.396 531.199 303.389 531.199 330.479C531.199 379.582 583.602 407.529 635.984 456.611C639.795 453.043 643.604 449.596 647.395 446.234C603.549 408.752 565.242 382.225 565.242 340.244Z" fill="#E42A53"/>
<path d="M688.389 522.418C717.373 522.418 740.848 544.41 740.848 571.502C740.848 620.603 688.389 648.551 635.986 697.635C583.604 648.551 531.201 620.603 531.201 571.502C531.201 544.41 554.678 522.418 583.603 522.418C609.795 522.418 622.9 534.684 635.986 559.236C649.092 534.684 662.197 522.418 688.389 522.418Z" fill="#EF3E5C"/>
<path d="M565.242 581.268C565.242 554.861 587.549 533.309 615.463 532.236C607.123 525.707 597.111 522.418 583.602 522.418C554.674 522.418 531.199 544.41 531.199 571.502C531.199 620.603 583.602 648.551 635.984 697.635C639.795 694.064 643.604 690.619 647.395 687.256C603.549 649.775 565.242 623.246 565.242 581.268Z" fill="#E42A53"/>
<path d="M421.57 155.383C450.557 155.383 474.033 177.375 474.033 204.465C474.033 253.566 421.57 281.516 369.17 330.598C316.787 281.516 264.385 253.566 264.385 204.465C264.385 177.375 287.863 155.383 316.787 155.383C342.979 155.383 356.084 167.646 369.17 192.199C382.273 167.646 395.379 155.383 421.57 155.383Z" fill="#EF3E5C"/>
<path d="M298.426 214.23C298.426 187.824 320.732 166.273 348.648 165.199C340.309 158.67 330.295 155.383 316.787 155.383C287.861 155.383 264.385 177.375 264.385 204.465C264.385 253.566 316.787 281.516 369.17 330.598C372.98 327.029 376.789 323.582 380.582 320.221C336.734 282.738 298.426 256.209 298.426 214.23Z" fill="#E42A53"/>
<path d="M421.57 652.285C450.557 652.285 474.033 674.277 474.033 701.367C474.033 750.469 421.57 778.418 369.17 827.5C316.787 778.418 264.385 750.469 264.385 701.367C264.385 674.277 287.863 652.285 316.787 652.285C342.979 652.285 356.084 664.549 369.17 689.102C382.273 664.549 395.379 652.285 421.57 652.285Z" fill="#EF3E5C"/>
<path d="M298.426 711.133C298.426 684.727 320.732 663.176 348.648 662.102C340.309 655.572 330.295 652.285 316.787 652.285C287.861 652.285 264.385 674.277 264.385 701.367C264.385 750.469 316.787 778.418 369.17 827.5C372.98 823.932 376.789 820.484 380.582 817.123C336.734 779.641 298.426 753.111 298.426 711.133Z" fill="#E42A53"/>
<path d="M157.469 525.996C186.455 525.996 209.93 547.988 209.93 575.08C209.93 624.182 157.469 652.129 105.068 701.213C52.6855 652.129 0.283203 624.182 0.283203 575.08C0.283203 547.988 23.7598 525.996 52.6855 525.996C78.877 525.996 91.9824 538.262 105.068 562.814C118.174 538.262 131.279 525.996 157.469 525.996Z" fill="#EF3E5C"/>
<path d="M34.3242 584.846C34.3242 558.439 56.6309 536.887 84.5449 535.814C76.2051 529.285 66.1934 525.996 52.6836 525.996C23.7559 525.996 0.28125 547.988 0.28125 575.08C0.28125 624.182 52.6836 652.129 105.066 701.213C108.877 697.643 112.686 694.197 116.477 690.834C72.6309 653.354 34.3242 626.824 34.3242 584.846Z" fill="#E42A53"/>
<path d="M192.77 60.168C212.32 60.168 228.16 76.0059 228.16 95.5566C228.16 115.109 212.32 130.947 192.77 130.947C173.217 130.947 157.379 115.109 157.379 95.5566C157.379 76.0059 173.217 60.168 192.77 60.168Z" fill="#EF3E5C"/>
<path d="M164.215 116.064C164.215 96.5137 180.053 80.6758 199.605 80.6758C211.338 80.6758 221.701 86.4043 228.141 95.1914C227.941 75.8125 212.195 60.168 192.77 60.168C173.217 60.168 157.379 76.0059 157.379 95.5566C157.379 103.375 159.943 110.576 164.234 116.432C164.232 116.309 164.215 116.189 164.215 116.064Z" fill="#E42A53"/>
<path d="M546.18 24.7793C565.73 24.7793 581.572 40.6172 581.572 60.168C581.572 79.7207 565.73 95.5586 546.18 95.5586C526.629 95.5586 510.791 79.7207 510.791 60.168C510.791 40.6172 526.631 24.7793 546.18 24.7793Z" fill="#EF3E5C"/>
<path d="M517.627 80.6758C517.627 61.125 533.465 45.2871 553.016 45.2871C564.75 45.2871 575.113 51.0156 581.553 59.8027C581.354 40.4238 565.607 24.7793 546.18 24.7793C526.629 24.7793 510.791 40.6172 510.791 60.168C510.791 67.9863 513.355 75.1875 517.647 81.043C517.643 80.9199 517.627 80.7988 517.627 80.6758Z" fill="#E42A53"/>
<path d="M793.953 812.51H563.875C558.48 812.51 554.109 808.139 554.109 802.744C554.109 797.35 558.48 792.979 563.875 792.979H793.953C799.348 792.979 803.719 797.35 803.719 802.744C803.719 808.139 799.346 812.51 793.953 812.51Z" fill="#EF3E5C"/>
<path d="M563.875 759.424H510.789C505.395 759.424 501.023 755.053 501.023 749.658C501.023 744.264 505.395 739.893 510.789 739.893H563.875C569.27 739.893 573.641 744.264 573.641 749.658C573.641 755.053 569.27 759.424 563.875 759.424Z" fill="#415A6B"/>
<path d="M421.57 408.16C450.557 408.16 474.033 430.152 474.033 457.242C474.033 506.344 421.57 534.293 369.17 583.375C316.787 534.293 264.385 506.344 264.385 457.242C264.385 430.152 287.863 408.16 316.787 408.16C342.979 408.16 356.084 420.424 369.17 444.977C382.273 420.424 395.379 408.16 421.57 408.16Z" fill="#EF3E5C"/>
<path d="M298.426 467.008C298.426 440.602 320.732 419.051 348.648 417.977C340.309 411.449 330.295 408.16 316.787 408.16C287.861 408.16 264.385 430.152 264.385 457.242C264.385 506.344 316.787 534.293 369.17 583.375C372.98 579.807 376.789 576.359 380.582 572.998C336.734 535.516 298.426 508.986 298.426 467.008Z" fill="#E42A53"/>
</svg>
