<svg width="838" height="852" viewBox="0 0 838 852" fill="none" xmlns="http://www.w3.org/2000/svg">
<path d="M707.436 135.416C782.086 210.318 828.238 313.678 828.238 427.779C828.238 656.492 642.826 841.902 414.117 841.902C185.406 841.902 -0.00390625 656.492 -0.00390625 427.779C-0.00390625 199.049 185.406 13.6387 414.117 13.6387C528.725 13.6387 632.455 60.2012 707.436 135.416ZM636.166 209.361C579.68 151.92 501.066 116.295 414.115 116.295C242.084 116.295 102.631 255.748 102.631 427.779C102.631 599.793 242.084 739.244 414.115 739.244C586.146 739.244 725.6 599.793 725.6 427.779C725.6 342.701 691.479 265.572 636.166 209.361Z" fill="#BE0000"/>
<path d="M433.646 771.109C605.678 771.109 745.131 631.656 745.131 459.643C745.131 393.385 724.43 331.951 689.146 281.461C712.408 325.086 725.6 374.895 725.6 427.777C725.6 599.791 586.146 739.242 414.115 739.242C308.352 739.242 214.916 686.521 158.615 605.941C211.004 704.211 314.504 771.109 433.646 771.109Z" fill="#950000"/>
<path d="M19.5254 459.645C19.5254 230.914 204.936 45.5039 433.646 45.5039C548.256 45.5039 651.986 92.0664 726.967 167.281C745.377 185.754 762.045 205.965 776.725 227.633C757.961 193.699 734.598 162.666 707.436 135.416C632.455 60.2012 528.725 13.6387 414.115 13.6387C185.404 13.6387 -0.00585938 199.049 -0.00585938 427.779C-0.00585938 513.748 26.1953 593.596 71.0391 659.781C38.2266 600.455 19.5254 532.238 19.5254 459.645Z" fill="#950000"/>
<path d="M636.166 209.361C691.477 265.572 725.6 342.701 725.6 427.779C725.6 599.793 586.146 739.244 414.115 739.244C242.084 739.244 102.631 599.793 102.631 427.779C102.631 255.748 242.084 116.295 414.115 116.295C501.068 116.295 579.682 151.92 636.166 209.361ZM562.436 285.846C525.07 246.803 472.436 222.486 414.115 222.486C300.736 222.486 208.822 314.381 208.822 427.779C208.822 541.158 300.736 633.074 414.115 633.074C527.494 633.074 619.408 541.158 619.408 427.779C619.408 372.721 597.728 322.721 562.436 285.846Z" fill="#EF3E5C"/>
<path d="M433.646 664.939C547.025 664.939 638.939 573.023 638.939 459.646C638.939 413.697 623.83 371.277 598.32 337.062C611.82 364.42 619.408 395.213 619.408 427.779C619.408 541.158 527.492 633.074 414.115 633.074C346.73 633.074 286.93 600.605 249.498 550.461C283.012 618.283 352.877 664.939 433.646 664.939Z" fill="#E42A53"/>
<path d="M122.162 459.646C122.162 287.613 261.615 148.162 433.646 148.162C520.6 148.162 599.213 183.787 655.697 241.229C667.934 253.664 679.127 267.127 689.15 281.469C674.988 254.908 657.098 230.635 636.166 209.363C579.68 151.922 501.066 116.297 414.115 116.297C242.084 116.297 102.631 255.75 102.631 427.781C102.631 494.039 123.338 555.455 158.613 605.941C135.359 562.318 122.162 512.525 122.162 459.646Z" fill="#E42A53"/>
<path d="M448.588 350.924C472.57 350.924 491.986 370.338 491.986 394.264C491.986 437.623 448.588 462.291 405.248 505.65C361.908 462.291 318.568 437.623 318.568 394.264C318.568 370.338 337.982 350.924 361.908 350.924C369.447 350.924 394.408 361.764 405.248 383.443C416.088 361.764 426.928 350.924 448.588 350.924Z" fill="#EF3E5C"/>
<path d="M436.498 398.279C447.338 376.6 458.178 365.76 479.838 365.76C480.328 365.76 480.812 365.781 481.297 365.797C473.344 356.689 461.646 350.924 448.588 350.924C430.932 350.924 420.467 358.129 411.33 372.531C420.514 377.91 430.598 386.475 436.498 398.279Z" fill="#E42A53"/>
<path d="M349.818 409.1C349.818 385.785 368.254 366.764 391.334 365.805C380.059 355.896 367.004 350.924 361.908 350.924C337.982 350.924 318.568 370.338 318.568 394.264C318.568 437.623 361.908 462.291 405.248 505.65C407.785 503.111 410.322 500.645 412.852 498.225C378.682 467.422 349.818 444.482 349.818 409.1Z" fill="#E42A53"/>
<path d="M562.436 285.846C597.727 322.721 619.408 372.721 619.408 427.779C619.408 541.158 527.492 633.074 414.115 633.074C300.738 633.074 208.822 541.158 208.822 427.779C208.822 314.381 300.736 222.486 414.115 222.486C472.436 222.486 525.072 246.803 562.436 285.846ZM491.986 394.264C491.986 370.338 472.572 350.924 448.588 350.924C426.926 350.924 416.086 361.764 405.248 383.443C394.408 361.764 369.447 350.924 361.908 350.924C337.982 350.924 318.568 370.338 318.568 394.264C318.568 437.623 361.908 462.291 405.248 505.65C448.588 462.291 491.986 437.623 491.986 394.264Z" fill="#FFC230"/>
<path d="M228.354 459.646C228.354 346.246 320.268 254.354 433.646 254.354C491.967 254.354 544.603 278.67 581.967 317.713C587.805 323.814 593.264 330.281 598.32 337.064C588.996 318.17 576.853 300.912 562.436 285.848C525.07 246.805 472.436 222.488 414.115 222.488C300.736 222.488 208.822 314.383 208.822 427.781C208.822 473.775 223.949 516.236 249.498 550.463C235.969 523.078 228.354 492.254 228.354 459.646Z" fill="#E09E1B"/>
<path d="M524.211 335.26C521.772 335.26 519.33 334.351 517.434 332.525C513.553 328.781 513.438 322.599 517.182 318.717L821.205 3.32591C824.945 -0.554946 831.129 -0.672136 835.012 3.072C838.895 6.81615 839.01 12.9978 835.266 16.8806L531.242 332.271C529.326 334.26 526.772 335.26 524.211 335.26Z" fill="#FFC230"/>
<path d="M668.959 851.666H67.2402C61.8477 851.666 57.4746 847.295 57.4746 841.9C57.4746 836.506 61.8477 832.135 67.2402 832.135H668.961C674.355 832.135 678.727 836.506 678.727 841.9C678.727 847.295 674.354 851.666 668.959 851.666Z" fill="#FFC230"/>
<path d="M792.848 126.062C791.824 126.062 790.781 125.9 789.758 125.558L736.67 107.861C733.754 106.888 731.467 104.601 730.496 101.683L712.799 48.5775C711.094 43.4603 713.86 37.931 718.975 36.2259C724.084 34.5169 729.621 37.2845 731.326 42.4036L747.481 90.8763L795.934 107.027C801.051 108.734 803.815 114.263 802.109 119.38C800.746 123.474 796.936 126.062 792.848 126.062Z" fill="#FFC230"/>
<path d="M828.238 90.6732C827.213 90.6732 826.17 90.5111 825.146 90.1693L772.025 72.4427C769.127 71.4642 766.853 69.181 765.885 66.2786L748.189 13.1927C746.484 8.07552 749.248 2.54622 754.365 0.83919C759.474 -0.869794 765.012 1.89778 766.717 7.01692L782.871 55.4779L831.326 71.6419C836.443 73.349 839.207 78.8802 837.5 83.9954C836.135 88.0853 832.326 90.6732 828.238 90.6732Z" fill="#FFC230"/>
</svg>
