<svg width="780" height="558" viewBox="0 0 780 558" fill="none" xmlns="http://www.w3.org/2000/svg">
<path d="M503.848 426.221C471.465 458.875 435.82 493.562 400.176 533.467C365.234 494.344 330.312 460.225 298.438 428.131C327.812 430.377 358.457 431.568 390 431.568C429.609 431.568 467.832 429.695 503.848 426.221Z" fill="#EF3E5C"/>
<path d="M334.082 446.197C363.457 448.443 394.1 449.635 425.645 449.635C444.715 449.635 463.449 449.191 481.785 448.354C489.273 440.854 496.645 433.484 503.848 426.221C467.832 429.695 429.609 431.568 390 431.568C358.459 431.568 327.812 430.379 298.438 428.131C330.312 460.225 365.234 494.342 400.176 533.467C403.322 529.941 406.471 526.475 409.615 523.029C383.576 495.445 357.975 470.254 334.082 446.197Z" fill="#D32F53"/>
<path d="M230.723 554.951C250.268 554.951 266.113 539.106 266.113 519.561C266.113 500.015 250.268 484.17 230.723 484.17C211.177 484.17 195.332 500.015 195.332 519.561C195.332 539.106 211.177 554.951 230.723 554.951Z" fill="#EF3E5C"/>
<path d="M205.098 539.326C205.098 519.771 220.937 503.934 240.488 503.934C250.371 503.934 259.293 507.988 265.713 514.516C263.26 497.361 248.557 484.17 230.723 484.17C211.172 484.17 195.332 500.008 195.332 519.559C195.332 529.229 199.215 537.98 205.498 544.369C205.262 542.717 205.098 541.043 205.098 539.326Z" fill="#E42A53"/>
<path d="M566.504 358.953C645.644 347.822 697.383 329.424 697.383 308.621C697.383 293.232 669.141 279.168 622.48 268.387C629.062 250.906 633.418 232.605 635.117 213.094C723.105 235.633 779.355 270.047 779.355 308.621C779.355 364.01 663.342 410.848 503.848 426.221C467.832 429.695 429.609 431.568 390 431.568C358.459 431.568 327.812 430.379 298.437 428.131C127.598 415.147 0.644531 366.568 0.644531 308.621C0.644531 267.176 65.5664 230.535 165.039 208.25C166.289 228.094 170.273 246.668 176.543 264.383C118.635 275.574 82.6172 291.238 82.6172 308.621C82.6172 331.375 144.473 351.258 236.387 361.883C281.582 367.098 334.043 370.088 389.998 370.088C455.684 370.088 516.543 365.963 566.504 358.953Z" fill="#FFD55E"/>
<path d="M635.117 236.352C714.17 256.602 767.57 286.439 777.609 320.268C778.752 316.434 779.355 312.551 779.355 308.621C779.355 270.047 723.105 235.633 635.117 213.094C633.418 232.605 629.062 250.906 622.48 268.387C624.809 268.924 627.08 269.475 629.318 270.029C632.129 259.176 634.104 247.982 635.117 236.352Z" fill="#E5B848"/>
<path d="M165.039 231.508C165.783 243.318 167.518 254.67 170.103 265.668C172.223 265.234 174.363 264.805 176.543 264.383C170.273 246.668 166.289 228.094 165.039 208.25C65.5664 230.535 0.644531 267.174 0.644531 308.621C0.644531 312.535 1.24414 316.406 2.37695 320.225C13.2754 283.611 75 251.68 165.039 231.508Z" fill="#E5B848"/>
<path d="M635.898 194.188C635.898 200.613 635.623 206.922 635.117 213.094C633.418 232.605 629.062 250.906 622.48 268.387C610.408 300.42 590.877 329.754 566.504 358.953C516.543 365.965 455.684 370.088 390 370.088C334.045 370.088 281.582 367.098 236.389 361.883C209.865 330.518 188.828 299.07 176.543 264.385C170.273 246.67 166.289 228.096 165.039 208.252V208.154C164.746 203.564 164.59 198.916 164.59 194.189C164.59 119.775 217.346 59.4238 282.385 59.4238C341.291 59.4238 370.723 93.1152 400.178 160.498C429.631 93.1152 459.084 59.4238 517.971 59.4238C583.145 59.4219 635.898 119.773 635.898 194.188Z" fill="#EF3E5C"/>
<path d="M213.809 282.078C207.539 264.363 203.555 245.789 202.305 225.945V225.848C202.012 221.258 201.855 216.609 201.855 211.883C201.855 137.469 254.611 77.1172 319.65 77.1172C329.443 77.1172 338.404 78.0703 346.703 79.9316C329.439 66.2734 308.904 59.4219 282.385 59.4219C217.346 59.4219 164.59 119.773 164.59 194.188C164.59 198.914 164.746 203.562 165.039 208.152V208.25C166.289 228.094 170.273 246.668 176.543 264.383C188.828 299.068 209.865 330.518 236.389 361.881C244.479 362.816 252.809 363.674 261.342 364.459C240.623 338.037 224.123 311.199 213.809 282.078Z" fill="#E42A53"/>
<path d="M381.662 228.571C303.857 228.571 249.143 213.321 245.734 212.348C240.549 210.868 237.545 205.461 239.025 200.276C240.508 195.092 245.902 192.094 251.094 193.567C252.311 193.914 374.312 227.782 511.516 193.485C516.746 192.172 522.053 195.358 523.357 200.59C524.666 205.823 521.484 211.125 516.252 212.432C467.85 224.532 421.695 228.571 381.662 228.571Z" fill="#FFD55E"/>
<path d="M363.609 303.774C315.897 303.774 284.957 299.508 282.428 299.151C277.092 298.387 273.381 293.44 274.143 288.104C274.904 282.764 279.854 279.047 285.188 279.813C286.408 279.987 408.98 296.793 546.908 262.313C552.143 260.995 557.445 264.186 558.75 269.418C560.059 274.653 556.877 279.954 551.645 281.26C479.695 299.245 412.754 303.774 363.609 303.774Z" fill="#FFD55E"/>
<path d="M601.893 486.812C621.443 486.812 637.283 502.65 637.283 522.201C637.283 541.752 621.443 557.594 601.893 557.594C582.34 557.594 566.502 541.752 566.502 522.201C566.502 502.65 582.342 486.812 601.893 486.812Z" fill="#EF3E5C"/>
<path d="M576.268 541.971C576.268 522.416 592.106 506.578 611.658 506.578C621.541 506.578 630.463 510.633 636.883 517.16C634.43 500.006 619.727 486.814 601.893 486.814C582.34 486.814 566.502 502.652 566.502 522.203C566.502 531.873 570.385 540.625 576.668 547.014C576.432 545.361 576.268 543.688 576.268 541.971Z" fill="#E42A53"/>
<path d="M707.148 45.5625C726.699 45.5625 742.539 61.4004 742.539 80.9531C742.539 100.504 726.699 116.344 707.148 116.344C687.596 116.344 671.758 100.504 671.758 80.9531C671.758 61.4004 687.596 45.5625 707.148 45.5625Z" fill="#EF3E5C"/>
<path d="M681.523 100.719C681.523 81.166 697.361 65.3281 716.914 65.3281C726.797 65.3281 735.719 69.3828 742.139 75.9102C739.686 58.7559 724.982 45.5625 707.148 45.5625C687.596 45.5625 671.758 61.4004 671.758 80.9531C671.758 90.6211 675.641 99.375 681.924 105.762C681.687 104.111 681.523 102.436 681.523 100.719Z" fill="#E42A53"/>
<path d="M96.2461 0.40625C115.797 0.40625 131.637 16.2441 131.637 35.7969C131.637 55.3476 115.797 71.1875 96.2461 71.1875C76.6934 71.1875 60.8555 55.3476 60.8555 35.7969C60.8555 16.2441 76.6934 0.40625 96.2461 0.40625Z" fill="#EF3E5C"/>
<path d="M70.6211 55.5625C70.6211 36.0098 86.459 20.1719 106.012 20.1719C115.895 20.1719 124.816 24.2265 131.236 30.7539C128.783 13.5996 114.08 0.40625 96.2461 0.40625C76.6934 0.40625 60.8555 16.2441 60.8555 35.7969C60.8555 45.4648 64.7383 54.2188 71.0215 60.6055C70.7852 58.9531 70.6211 57.2793 70.6211 55.5625Z" fill="#E42A53"/>
</svg>
