<svg width="568" height="774" viewBox="0 0 568 774" fill="none" xmlns="http://www.w3.org/2000/svg">
<path d="M301.637 401.727C289.82 390.184 278.002 379.148 266.303 368.523V428.152V474.676V504.656V557.059V596.395V737.977C266.303 757.527 282.143 773.387 301.693 773.387C321.246 773.387 337.084 757.527 337.084 737.977V596.395V557.059V504.656V474.695V428.152V368.406C325.348 379.07 313.492 390.145 301.637 401.727Z" fill="#415A6B"/>
<path d="M282.504 753.709V612.127V572.791V520.389V490.408V443.885V384.256C294.203 394.881 306.022 405.916 317.838 417.459C324.26 411.184 330.68 405.07 337.084 399.08V368.406C325.346 379.07 313.49 390.145 301.637 401.727C289.82 390.184 278.002 379.148 266.303 368.523V428.152V474.676V504.656V557.059V596.395V737.977C266.303 752.057 274.541 764.188 286.443 769.893C283.941 765.039 282.504 759.545 282.504 753.709Z" fill="#2E4551"/>
<path d="M36.2266 330.945C55.7773 330.945 71.6367 346.785 71.6367 366.336C71.6367 385.887 55.7773 401.727 36.2266 401.727C16.6758 401.727 0.835938 385.887 0.835938 366.336C0.835938 346.785 16.6758 330.945 36.2266 330.945Z" fill="#FFD55E"/>
<path d="M10.6016 387.625C10.6016 368.074 26.4414 352.234 45.9922 352.234C56.0059 352.234 65.0312 356.408 71.4727 363.088C69.8281 345.063 54.6797 330.945 36.2266 330.945C16.6758 330.945 0.835938 346.785 0.835938 366.336C0.835938 375.881 4.62892 384.523 10.7676 390.885C10.668 389.811 10.6016 388.727 10.6016 387.625Z" fill="#E8BB49"/>
<path d="M160.111 667.195C179.664 667.195 195.502 683.035 195.502 702.586C195.502 722.137 179.664 737.977 160.111 737.977C140.561 737.977 124.723 722.137 124.723 702.586C124.723 683.035 140.563 667.195 160.111 667.195Z" fill="#415A6B"/>
<path d="M134.488 724.07C134.488 704.52 150.326 688.68 169.877 688.68C179.891 688.68 188.912 692.852 195.348 699.533C193.799 681.418 178.631 667.195 160.111 667.195C140.561 667.195 124.723 683.035 124.723 702.586C124.723 712.123 128.51 720.762 134.643 727.123C134.555 726.115 134.488 725.102 134.488 724.07Z" fill="#2E4551"/>
<path d="M531.773 525.615C551.324 525.615 567.164 541.453 567.164 561.004C567.164 580.557 551.324 596.395 531.773 596.395C512.221 596.395 496.363 580.557 496.363 561.004C496.363 541.453 512.223 525.615 531.773 525.615Z" fill="#EF3E5C"/>
<path d="M506.129 580.047C506.129 560.496 521.986 544.658 541.539 544.658C551.35 544.658 560.223 548.65 566.633 555.096C563.816 538.367 549.307 525.615 531.773 525.615C512.221 525.615 496.363 541.453 496.363 561.004C496.363 570.738 500.299 579.551 506.658 585.947C506.338 584.025 506.129 582.063 506.129 580.047Z" fill="#E42A53"/>
<path d="M416.637 0.613281C480.25 0.613281 531.773 50.9473 531.773 112.996C531.773 213.779 439.156 275.652 337.084 368.408C325.346 379.072 313.49 390.146 301.637 401.729C289.82 390.186 278.002 379.15 266.303 368.525C164.213 275.693 71.6348 213.818 71.6348 112.998C71.6348 50.9473 123.139 0.615241 186.635 0.615241C244.135 0.615241 272.885 28.7227 301.637 84.8926C330.387 28.7207 359.137 0.613281 416.637 0.613281Z" fill="#EF3E5C"/>
<path d="M124.723 131.98C124.723 69.9297 176.227 19.5977 239.723 19.5977C244.283 19.5977 248.645 19.7969 252.859 20.1484C235.303 7.14062 214.303 0.613281 186.637 0.613281C123.141 0.613281 71.6367 50.9473 71.6367 112.996C71.6367 213.816 164.215 275.691 266.305 368.523C278.004 379.148 289.822 390.184 301.639 401.727C307.061 396.428 312.484 391.248 317.896 386.152C216.4 294.074 124.723 232.307 124.723 131.98Z" fill="#E42A53"/>
<path d="M319.395 269.915C315.518 269.915 311.852 267.592 310.322 263.77C308.32 258.764 310.756 253.079 315.764 251.077C398.053 218.167 415.838 135.159 416.008 134.327C417.082 129.049 422.232 125.626 427.512 126.696C432.791 127.76 436.213 132.891 435.158 138.174C434.393 141.999 415.361 232.284 323.016 269.213C321.828 269.688 320.6 269.915 319.395 269.915Z" fill="#E42A53"/>
<path d="M407.887 606.16H195.504C190.111 606.16 185.738 601.789 185.738 596.395C185.738 591 190.111 586.629 195.504 586.629H407.887C413.281 586.629 417.652 591 417.652 596.395C417.652 601.789 413.279 606.16 407.887 606.16Z" fill="#FFD55E"/>
<path d="M396.852 454.832C426.029 454.832 449.721 470.477 449.721 489.734C449.721 509.051 426.029 524.693 396.852 524.693C383.646 524.693 359.508 514.518 337.084 504.654V474.695C359.508 464.912 383.766 454.832 396.852 454.832Z" fill="#FFD55E"/>
<path d="M343.434 488.855C365.855 479.07 390.113 468.992 403.201 468.992C423.172 468.992 440.566 476.322 449.559 487.121C447.529 469.082 424.697 454.832 396.854 454.832C383.768 454.832 359.51 464.91 337.086 474.695V504.656C339.189 505.582 341.311 506.508 343.434 507.43V488.855Z" fill="#E8BB49"/>
<path d="M266.303 474.678V504.658C243.883 514.521 219.74 524.697 206.537 524.697C177.377 524.697 153.684 509.053 153.684 489.738C153.684 470.48 177.377 454.836 206.537 454.836C219.625 454.832 243.883 464.912 266.303 474.678Z" fill="#FFD55E"/>
<path d="M162.963 505.85C162.963 486.592 186.656 470.947 215.816 470.947C227.111 470.947 246.729 478.459 266.305 486.791V474.678C243.885 464.912 219.627 454.834 206.539 454.834C177.379 454.834 153.686 470.479 153.686 489.736C153.686 497.225 157.258 504.154 163.316 509.84C163.092 508.529 162.963 507.199 162.963 505.85Z" fill="#E8BB49"/>
</svg>
