<svg width="708" height="670" viewBox="0 0 708 670" fill="none" xmlns="http://www.w3.org/2000/svg">
<path d="M672.555 599.104C692.107 599.104 707.945 614.961 707.945 634.492C707.945 654.043 692.107 669.904 672.555 669.904C653.004 669.904 637.166 654.043 637.166 634.492C637.164 614.961 653.004 599.104 672.555 599.104Z" fill="#FFD55E"/>
<path d="M646.93 653.047C646.93 633.516 662.768 617.658 682.318 617.658C692.084 617.658 700.92 621.613 707.324 628.008C704.273 611.574 689.885 599.104 672.553 599.104C653.002 599.104 637.164 614.961 637.164 634.492C637.164 644.281 641.135 653.143 647.551 659.551C647.162 657.441 646.93 655.271 646.93 653.047Z" fill="#E8BB49"/>
<path d="M212.418 386.738C231.971 386.738 247.809 402.576 247.809 422.127C247.809 441.678 231.971 457.52 212.418 457.52C192.867 457.52 177.029 441.678 177.029 422.127C177.029 402.576 192.867 386.738 212.418 386.738Z" fill="#EF3E5C"/>
<path d="M189.236 442.541C189.236 422.99 205.074 407.148 224.625 407.148C233.172 407.148 241.01 410.178 247.125 415.217C243.91 398.98 229.604 386.74 212.418 386.74C192.867 386.74 177.029 402.578 177.029 422.129C177.029 433.135 182.047 442.961 189.922 449.453C189.479 447.213 189.236 444.904 189.236 442.541Z" fill="#E42A53"/>
<path d="M290.955 167.578C284.881 184.375 277.438 201.367 268.357 217.734C253.922 243.809 235.311 268.379 211.365 288.34C159.393 237.148 123.922 186.992 123.922 121.836C123.922 54.6289 179.41 0.0976562 247.77 0.0976562C277.301 0.0976562 299.818 7.03125 318.609 20.8789C318.609 20.8789 318.355 61.3477 306.695 113.301C302.85 130.488 297.73 148.926 290.955 167.578Z" fill="#BE0000"/>
<path d="M150.465 140.068C150.465 72.8613 205.953 18.3301 274.312 18.3301C291.113 18.3301 305.639 20.582 318.506 25.0664C318.6 22.3457 318.609 20.8789 318.609 20.8789C299.82 7.03125 277.303 0.0976562 247.77 0.0976562C179.41 0.0976562 123.922 54.6289 123.922 121.836C123.922 186.992 159.391 237.148 211.365 288.34C213.018 286.961 214.641 285.557 216.242 284.137C176.332 240.395 150.465 195.699 150.465 140.068Z" fill="#990000"/>
<path d="M268.355 217.734C277.436 201.367 284.879 184.375 290.953 167.578C297.73 148.926 302.848 130.488 306.695 113.301C318.355 61.3477 318.609 20.8789 318.609 20.8789C339.236 36.0547 355.428 59.5703 371.637 91.4063C402.594 30.5469 433.551 0.0976562 495.463 0.0976562C563.998 0.0976562 619.467 54.6289 619.467 121.836C619.467 185.547 585.502 234.902 535.385 284.922C489.721 330.488 430.658 376.623 371.635 434.666C314.057 378.066 256.479 332.813 211.361 288.34C235.309 268.379 253.922 243.809 268.355 217.734Z" fill="#EF3E5C"/>
<path d="M278.26 249.391C287.34 233.023 294.783 216.031 300.857 199.234C307.635 180.582 312.752 162.145 316.6 144.957C328.26 93.0039 328.514 52.5352 328.514 52.5352C349.141 67.7109 365.332 91.2266 381.541 123.063C412.498 62.2031 443.455 31.7539 505.367 31.7539C555.227 31.7539 598.145 60.6289 617.848 102.236C608.301 44.3418 557.193 0.0976562 495.465 0.0976562C433.553 0.0976562 402.594 30.5469 371.639 91.4063C355.428 59.5703 339.236 36.0547 318.611 20.8789C318.611 20.8789 318.357 61.3477 306.697 113.301C302.85 130.488 297.732 148.926 290.955 167.578C284.881 184.375 277.438 201.367 268.357 217.734C253.922 243.809 235.311 268.379 211.365 288.34C218.373 295.248 225.713 302.184 233.277 309.17C251.551 291.434 266.336 270.93 278.26 249.391Z" fill="#E42A53"/>
<path d="M356.447 641.633C345.014 641.633 332.754 641.069 319.877 639.92C264.442 634.969 208.627 620.293 162.717 598.592C85.3751 562.039 41.0665 508.412 34.5763 443.51C34.0411 438.147 37.9552 433.36 43.3224 432.821C48.6993 432.309 53.4747 436.203 54.0118 441.569C61.3028 514.479 121.69 557.6 171.067 580.934C272.162 628.717 392.592 629.246 419.385 611.387C433.844 601.746 420.32 577.985 413.834 568.215C410.852 563.721 412.076 557.66 416.568 554.676C421.065 551.694 427.123 552.918 430.108 557.41C450.363 587.924 450.406 614.176 430.221 627.635C416.535 636.762 390.086 641.633 356.447 641.633Z" fill="#FFD55E"/>
<path d="M367.301 581.467C316.439 581.467 308.844 549.869 308.844 531.033C308.844 495.4 332.391 492.631 339.605 492.631C368.926 492.631 409.408 526.254 430.104 557.408C431.836 560.018 432.213 563.295 431.119 566.229C430.023 569.158 427.592 571.391 424.574 572.225C402.426 578.355 383.156 581.467 367.301 581.467ZM339.605 512.162C335.961 512.162 328.375 512.162 328.375 531.033C328.375 545.422 332.801 561.936 367.301 561.936C378.09 561.936 390.885 560.254 405.469 556.924C385.389 532.361 356.441 512.162 339.605 512.162Z" fill="#FFD55E"/>
<path d="M421.963 572.58C417.686 572.58 413.76 569.75 412.561 565.428C411.117 560.229 414.16 554.846 419.355 553.404C476.041 537.664 555.531 499.738 631.988 451.953C659.578 434.715 672.682 416.885 670.938 398.963C667.072 359.221 593.625 317.607 531.902 294.047C529.234 293.016 527.738 292.479 527.676 292.455C526.66 292.09 525.711 291.561 524.869 290.887C493.922 266.121 474 234.5 465.656 196.902C460.65 174.361 459.807 150.131 463.07 122.826C464.125 113.908 465.428 106.24 466.473 100.078C467.32 95.0879 468.119 90.375 468.119 88.5957C468.119 83.2031 472.49 78.8301 477.885 78.8301C483.279 78.8301 487.65 83.2031 487.65 88.5957C487.65 92.0215 486.885 96.5273 485.731 103.346C484.721 109.291 483.465 116.691 482.467 125.133C479.467 150.227 480.205 172.314 484.723 192.67C491.969 225.318 509.17 252.893 535.857 274.654C536.619 274.939 537.645 275.326 538.906 275.812C572.908 288.793 684.434 335.939 690.379 397.068C692.898 422.982 676.736 447.022 642.34 468.514C563.217 517.967 483.848 555.768 424.582 572.221C423.707 572.465 422.828 572.58 421.963 572.58Z" fill="#FFD55E"/>
<path d="M513.277 133.75H424.801C419.406 133.75 415.035 129.377 415.035 123.984C415.035 118.592 419.406 114.219 424.801 114.219H513.277C518.672 114.219 523.043 118.592 523.043 123.984C523.043 129.377 518.672 133.75 513.277 133.75Z" fill="#FFD55E"/>
<path d="M513.277 204.551H424.801C419.406 204.551 415.035 200.178 415.035 194.785C415.035 189.393 419.406 185.02 424.801 185.02H513.277C518.672 185.02 523.043 189.393 523.043 194.785C523.043 200.178 518.672 204.551 513.277 204.551Z" fill="#FFD55E"/>
<path d="M353.99 151.447C352.281 151.447 350.549 150.998 348.976 150.054L260.48 96.9684C255.855 94.195 254.355 88.1969 257.129 83.5719C259.902 78.945 265.9 77.443 270.525 80.2204L359.023 133.306C363.648 136.08 365.148 142.08 362.375 146.705C360.545 149.756 357.307 151.447 353.99 151.447Z" fill="#FFD55E"/>
<path d="M336.297 204.553C334.586 204.553 332.855 204.104 331.283 203.16L242.783 150.055C238.16 147.279 236.66 141.279 239.435 136.656C242.213 132.033 248.211 130.535 252.834 133.309L341.33 186.412C345.955 189.186 347.455 195.186 344.68 199.811C342.848 202.861 339.613 204.553 336.297 204.553Z" fill="#FFD55E"/>
<path d="M318.6 257.638C316.891 257.638 315.16 257.189 313.588 256.245L225.088 203.158C220.465 200.382 218.965 194.384 221.74 189.759C224.516 185.134 230.514 183.636 235.137 186.412L323.631 239.495C328.258 242.269 329.76 248.267 326.984 252.892C325.152 255.945 321.918 257.638 318.6 257.638Z" fill="#FFD55E"/>
<path d="M42.5176 177.07L88.5312 442.541H44.2949H0.0546875L42.5176 177.07Z" fill="#415A6B"/>
<path d="M53.4902 240.371L42.5176 177.07L0.0546875 442.541H21.1523L53.4902 240.371Z" fill="#2D4451"/>
</svg>
