<svg width="756" height="662" viewBox="0 0 756 662" fill="none" xmlns="http://www.w3.org/2000/svg">
<path d="M566.789 0.482422C671.24 0.482422 755.891 85.1309 755.891 189.27C755.891 378.371 566.789 470.051 378 658.84C330.305 611.223 282.629 569.797 238.02 531.42H331.982V442.922H225.791V336.73H137.314V442.648C55.9473 366.145 0.107422 292.102 0.107422 189.27C0.107422 85.1309 84.7559 0.482422 188.896 0.482422C283.447 0.482422 330.713 47.4355 377.998 141.984C425.285 47.4355 472.551 0.482422 566.789 0.482422Z" fill="#EF3E5C"/>
<path d="M36.5684 210.502C36.5684 106.361 121.217 21.7129 225.357 21.7129C254.168 21.7129 278.568 26.0977 299.938 34.8359C270.637 11.9258 235.525 0.484375 188.898 0.484375C84.7578 0.484375 0.109375 85.1328 0.109375 189.271C0.109375 292.103 55.9492 366.148 137.316 442.65V427.758C76.1914 363.314 36.5684 297.121 36.5684 210.502Z" fill="#E42A53"/>
<path d="M331.982 442.924V531.42H238.02H225.791V637.592H137.316V531.42H31.123V442.924H137.316V442.65V336.732H225.791V442.924H331.982Z" fill="#4DD0E2"/>
<path d="M48.0508 459.852H154.244V459.578V353.66H225.791V336.732H137.316V442.65V442.924H31.123V531.42H48.0508V459.852Z" fill="#3BB3BC"/>
<path d="M402.787 315.502H367.375V350.891H402.787V315.502Z" fill="#4DD0E2"/>
<path d="M402.787 262.416H367.375V297.807H402.787V262.416Z" fill="#4DD0E2"/>
<path d="M402.787 209.311H367.375V244.721H402.787V209.311Z" fill="#4DD0E2"/>
<path d="M544.378 381.908C541.221 381.908 538.126 380.381 536.243 377.556C533.251 373.068 534.464 367.008 538.952 364.013C601.786 322.123 632.337 264.172 629.755 191.773C627.798 136.898 606.624 93.7634 606.411 93.3356C604.011 88.5095 605.97 82.6462 610.794 80.2419C615.612 77.8395 621.475 79.7849 623.884 84.6071C624.825 86.4919 646.977 131.414 649.247 190.361C651.362 245.334 635.825 322.902 549.784 380.263C548.12 381.377 546.239 381.908 544.378 381.908Z" fill="#E42A53"/>
<path d="M739.035 661.518H544.367C538.973 661.518 534.602 657.146 534.602 651.752C534.602 646.357 538.973 641.986 544.367 641.986H739.035C744.43 641.986 748.801 646.357 748.801 651.752C748.801 657.146 744.428 661.518 739.035 661.518Z" fill="#EF3E5C"/>
</svg>
