<svg width="784" height="684" viewBox="0 0 784 684" fill="none" xmlns="http://www.w3.org/2000/svg">
<path d="M782.156 169.285C783.055 176.707 783.564 184.225 783.564 191.881C783.564 229.988 775.772 264.832 761.768 297.721C742.412 343.131 711.182 384.811 672.158 426.158C632.566 468.092 584.988 509.713 533.621 554.576C488.33 594.166 440.105 636.295 391.883 683.424L392 506.16L338.912 417.684L445.084 311.492L321.197 222.996L382.934 134.52C431.881 38.8555 489.75 0.574219 587.623 0.574219C688.055 0.574219 770.711 74.3242 782.156 169.285Z" fill="#EF3E5C"/>
<path d="M426.084 650.777L426.18 507.475L373.092 418.998L479.264 312.807L355.377 224.311L417.113 135.834C464.334 43.541 519.873 4.67187 611.613 2.04492C603.746 1.10742 595.75 0.574219 587.623 0.574219C489.752 0.574219 431.881 38.8555 382.934 134.52L321.197 222.996L445.084 311.492L338.912 417.684L392 506.16L391.881 683.426C403.297 672.271 414.709 661.404 426.084 650.777Z" fill="#D83659"/>
<path d="M91.1406 506.16C110.691 506.16 126.531 522.02 126.531 541.57C126.531 561.121 110.691 576.961 91.1406 576.961C71.5898 576.961 55.75 561.121 55.75 541.57C55.75 522.02 71.5898 506.16 91.1406 506.16Z" fill="#BE0000"/>
<path d="M65.5156 561.102C65.5156 541.551 81.3555 525.691 100.906 525.691C110.764 525.691 119.67 529.729 126.088 536.232C123.51 519.219 108.875 506.16 91.1406 506.16C71.5898 506.16 55.75 522.02 55.75 541.57C55.75 551.262 59.6504 560.035 65.959 566.426C65.6953 564.686 65.5156 562.914 65.5156 561.102Z" fill="#A10000"/>
<path d="M445.086 311.492L338.914 417.684L392 506.16L391.881 683.426C343.678 636.297 295.455 594.168 250.182 554.578C198.854 509.715 151.295 468.094 111.744 426.16C72.7402 384.812 41.5488 343.133 22.2129 297.723C8.22851 264.832 0.435547 229.988 0.435547 191.883C0.435547 184.227 0.943361 176.707 1.84375 169.287C13.2871 74.3262 95.9258 0.576172 196.158 0.576172C294.029 0.576172 334.01 38.8574 382.936 134.521L321.199 222.998L445.086 311.492Z" fill="#BE0000"/>
<path d="M298.035 572.391C246.707 527.527 199.148 485.906 159.598 443.973C120.594 402.625 89.4023 360.945 70.0664 315.535C56.082 282.645 48.2891 247.801 48.2891 209.695C48.2891 202.039 48.7969 194.52 49.6973 187.1C61.1406 92.1387 143.779 18.3887 244.012 18.3887C262.914 18.3887 279.639 19.834 294.703 22.8262C268.887 7.52539 237.766 0.574219 196.16 0.574219C95.9277 0.574219 13.2891 74.3242 1.8457 169.285C0.945314 176.707 0.4375 184.225 0.4375 191.881C0.4375 229.988 8.23046 264.832 22.2148 297.721C41.5488 343.131 72.7422 384.811 111.746 426.158C151.297 468.092 198.855 509.713 250.184 554.576C295.457 594.166 343.68 636.295 391.883 683.424L391.902 655.938C359.887 626.467 328.301 598.855 298.035 572.391Z" fill="#A10000"/>
<path d="M638.855 608.699C658.408 608.699 674.246 624.559 674.246 644.109C674.246 663.66 658.408 679.5 638.855 679.5C619.305 679.5 603.465 663.66 603.465 644.109C603.465 624.559 619.305 608.699 638.855 608.699Z" fill="#EF3E5C"/>
<path d="M613.23 663.641C613.23 644.09 629.07 628.23 648.621 628.23C658.481 628.23 667.385 632.268 673.803 638.771C671.227 621.758 656.59 608.699 638.856 608.699C619.305 608.699 603.465 624.559 603.465 644.109C603.465 653.801 607.365 662.574 613.674 668.965C613.408 667.225 613.23 665.453 613.23 663.641Z" fill="#D83659"/>
<path d="M648.621 197.371C643.227 197.371 638.855 192.998 638.855 187.605V134.52C638.855 129.125 643.227 124.754 648.621 124.754C654.016 124.754 658.387 129.125 658.387 134.52V187.605C658.387 192.998 654.014 197.371 648.621 197.371Z" fill="#FFC230"/>
<path d="M675.164 170.828H622.078C616.684 170.828 612.312 166.455 612.312 161.062C612.312 155.668 616.684 151.297 622.078 151.297H675.166C680.561 151.297 684.932 155.668 684.932 161.062C684.93 166.455 680.559 170.828 675.164 170.828Z" fill="#FFC230"/>
</svg>
