<svg width="806" height="798" viewBox="0 0 806 798" fill="none" xmlns="http://www.w3.org/2000/svg">
<path d="M500.537 36.2085C508.762 44.4507 507.998 58.5132 498.859 67.6538C482.277 84.2163 457.98 78.7866 426.555 80.4858C428.252 49.0405 422.824 24.7632 439.387 8.18115C448.527 -0.959474 462.607 -1.7212 470.813 6.48193C478.232 13.9233 477.805 21.7749 473.254 33.7866C485.244 29.2163 493.1 28.7866 500.537 36.2085Z" fill="#EF3E5C"/>
<path d="M439.393 80.1128C439.518 55.7495 437.969 36.4683 451.84 22.5854C458.725 15.6968 468.418 13.5718 476.289 16.4526C475.682 12.8667 473.959 9.63427 470.814 6.48193C462.609 -1.7212 448.529 -0.959474 439.389 8.18115C422.826 24.7632 428.254 49.0405 426.557 80.4858C430.977 80.2476 435.254 80.1519 439.393 80.1128Z" fill="#E42A53"/>
<path d="M375.559 96.6782C392.141 113.241 386.691 137.557 388.391 168.983C356.965 167.284 332.668 172.713 316.106 156.151C306.945 147.01 306.184 132.928 314.406 124.725C321.828 117.284 329.68 117.713 341.691 122.284C337.121 110.291 336.691 102.42 344.133 94.9985C352.356 86.7758 366.418 87.5375 375.559 96.6782Z" fill="#EF3E5C"/>
<path d="M327.834 138.153C335.256 130.711 343.107 131.141 355.119 135.711C350.549 123.719 350.119 115.848 357.561 108.426C363.852 102.135 373.557 101.122 381.865 105.079C380.234 102.088 378.17 99.2875 375.559 96.6782C366.418 87.5375 352.356 86.7758 344.133 94.9985C336.691 102.42 337.121 110.291 341.691 122.284C329.68 117.713 321.828 117.284 314.406 124.725C306.184 132.928 306.945 147.01 316.106 156.151C318.709 158.754 321.506 160.813 324.488 162.444C320.529 154.133 321.545 144.426 327.834 138.153Z" fill="#E42A53"/>
<path d="M509.426 204.314C517.65 212.537 516.887 226.619 507.748 235.759C491.186 252.322 466.869 246.873 435.441 248.572C437.143 217.146 431.715 192.849 448.273 176.287C457.414 167.146 471.498 166.384 479.699 174.587C487.143 182.009 486.711 189.88 482.141 201.873C494.152 197.302 502.002 196.873 509.426 204.314Z" fill="#EF3E5C"/>
<path d="M451.447 248.181C451.707 222.71 449.602 202.621 463.91 188.308C469.629 182.591 477.277 180.154 484.213 181.134C483.285 178.859 481.824 176.703 479.699 174.585C471.498 166.382 457.414 167.144 448.273 176.285C431.713 192.847 437.143 217.144 435.441 248.57C441.002 248.273 446.336 248.197 451.447 248.181Z" fill="#E42A53"/>
<path d="M583.9 483.122C599.502 498.727 598.061 525.446 580.715 542.809C549.27 574.237 503.117 563.905 443.469 567.126C446.711 507.477 436.396 461.366 467.822 429.919C485.187 412.575 511.904 411.13 527.473 426.698C541.594 440.8 540.775 455.719 532.1 478.495C554.875 469.823 569.797 469.022 583.9 483.122Z" fill="#EF3E5C"/>
<path d="M462.455 566.49C462.471 523.385 461.014 489.006 486.053 463.949C500.885 449.135 522.518 445.963 538.219 455.041C539.123 444.227 536.09 435.305 527.473 426.697C511.904 411.129 485.188 412.576 467.822 429.918C436.396 461.365 446.711 507.477 443.469 567.125C449.963 566.775 456.287 566.592 462.455 566.49Z" fill="#E42A53"/>
<path d="M392.062 282.438C419.17 309.547 410.248 349.333 413.039 400.758C361.611 397.965 321.848 406.852 294.756 379.762C279.795 364.801 278.545 341.755 291.963 328.337C304.131 316.169 316.982 316.872 336.611 324.333C329.15 304.704 328.447 291.852 340.615 279.684C354.074 266.247 377.102 267.477 392.062 282.438Z" fill="#EF3E5C"/>
<path d="M312.631 351.794C324.799 339.626 337.65 340.329 357.279 347.79C349.818 328.161 349.115 315.309 361.283 303.141C372.295 292.147 389.707 290.985 403.871 299.116C401 293.11 397.174 287.549 392.064 282.438C377.104 267.477 354.076 266.247 340.619 279.684C328.451 291.852 329.154 304.704 336.615 324.333C316.986 316.872 304.135 316.169 291.967 328.337C278.549 341.755 279.799 364.801 294.76 379.762C298.268 383.27 301.992 386.163 305.922 388.569C301.012 375.68 303.107 361.317 312.631 351.794Z" fill="#E42A53"/>
<path d="M134.582 390.154C154.133 390.154 169.973 405.994 169.973 425.545C169.973 445.098 154.133 460.936 134.582 460.936C115.031 460.936 99.1914 445.098 99.1914 425.545C99.1914 405.994 115.031 390.154 134.582 390.154Z" fill="#F7B64C"/>
<path d="M110.91 448.777C110.91 429.227 126.75 413.387 146.301 413.387C155.34 413.387 163.559 416.801 169.812 422.375C168.207 404.312 153.062 390.154 134.582 390.154C115.031 390.154 99.1914 405.994 99.1914 425.545C99.1914 436.059 103.797 445.469 111.07 451.951C110.977 450.902 110.91 449.848 110.91 448.777Z" fill="#E29E3B"/>
<path d="M407.006 614.333C448.898 656.228 435.109 717.714 439.408 797.204C359.936 792.909 298.49 806.638 256.615 764.745C233.471 741.618 231.557 706.015 252.299 685.272C271.107 666.464 290.971 667.538 321.303 679.101C309.76 648.749 308.686 628.886 327.494 610.097C348.273 589.296 383.879 591.208 407.006 614.333Z" fill="#EF3E5C"/>
<path d="M279.641 710.011C298.449 691.202 318.312 692.277 348.644 703.839C337.102 673.488 336.027 653.624 354.836 634.835C371.045 618.611 396.273 616.208 417.564 626.91C414.51 622.54 411.014 618.343 407.006 614.333C383.881 591.208 348.273 589.296 327.494 610.095C308.686 628.884 309.76 648.747 321.303 679.099C290.971 667.536 271.107 666.462 252.299 685.271C231.557 706.013 233.471 741.618 256.615 764.743C262.588 770.72 268.973 775.529 275.736 779.454C260.725 756.974 261.711 727.943 279.641 710.011Z" fill="#E42A53"/>
<path d="M795.303 152.146H736.301C730.906 152.146 726.535 147.773 726.535 142.381C726.535 127.699 716.473 115.037 702.613 112.27C699.146 111.578 696.322 109.066 695.236 105.705C690.514 91.1445 677.387 81.3633 662.57 81.3633C646.301 81.3633 632.102 93.3301 628.807 109.82C628.178 112.975 626.033 115.615 623.08 116.883C620.123 118.15 616.732 117.881 614.012 116.164C609.389 113.242 604.078 111.697 598.662 111.697C582.357 111.697 569.094 125.461 569.094 142.381C569.094 147.773 564.723 152.146 559.328 152.146C553.934 152.146 549.562 147.773 549.562 142.381C549.562 114.691 571.588 92.166 598.662 92.166C603.656 92.166 608.588 92.9414 613.299 94.4492C621.875 75.0059 641.055 61.834 662.57 61.834C684.062 61.834 703.25 74.7676 711.863 94.5352C728.938 100.076 741.672 114.812 745.127 132.617H795.301C800.695 132.617 805.066 136.99 805.066 142.383C805.066 147.775 800.697 152.146 795.303 152.146Z" fill="#4DD0E2"/>
<path d="M246.672 258.338H187.687C182.295 258.338 177.922 253.965 177.922 248.572C177.922 233.895 167.857 221.223 153.99 218.439C150.531 217.746 147.717 215.24 146.625 211.887C141.885 197.322 128.75 187.537 113.938 187.537C97.668 187.537 83.4687 199.512 80.1738 216.012C79.543 219.168 77.3984 221.811 74.4395 223.078C71.4785 224.346 68.0859 224.07 65.3672 222.348C60.7676 219.43 55.4629 217.889 50.0293 217.889C33.7246 217.889 20.459 231.652 20.459 248.572C20.459 253.965 16.0859 258.338 10.6934 258.338C5.30078 258.338 0.927734 253.965 0.927734 248.572C0.927734 220.883 22.9551 198.357 50.0293 198.357C55.0273 198.357 59.957 199.131 64.666 200.635C73.2383 181.184 92.418 168.006 113.936 168.006C135.422 168.006 154.615 180.941 163.244 200.709C180.322 206.264 193.055 221.008 196.514 238.807H246.672C252.064 238.807 256.438 243.18 256.438 248.572C256.438 253.965 252.066 258.338 246.672 258.338Z" fill="#4DD0E2"/>
<path d="M639.881 294.076C659.432 294.076 675.27 309.916 675.27 329.467C675.27 349.02 659.432 364.857 639.881 364.857C620.33 364.857 604.488 349.02 604.488 329.467C604.488 309.916 620.33 294.076 639.881 294.076Z" fill="#F7B64C"/>
<path d="M616.207 352.699C616.207 333.148 632.049 317.309 651.6 317.309C660.637 317.309 668.857 320.723 675.109 326.297C673.508 308.234 658.359 294.076 639.881 294.076C620.33 294.076 604.488 309.916 604.488 329.467C604.488 339.98 609.096 349.391 616.367 355.873C616.275 354.824 616.207 353.77 616.207 352.699Z" fill="#E29E3B"/>
</svg>
