<svg width="710" height="386" viewBox="0 0 710 386" fill="none" xmlns="http://www.w3.org/2000/svg">
<path d="M457.068 0.771484C508.396 0.771484 549.967 42.3418 549.967 93.5488C549.967 170.141 486.639 219.525 412.357 286.604C396.658 300.768 380.477 315.736 364.312 331.922C346.912 314.52 329.533 298.527 312.74 283.414C240.018 217.943 178.758 168.924 178.758 93.5488C178.758 42.3418 220.303 0.771484 271.535 0.771484C317.924 0.771484 341.117 23.9668 364.312 70.3555C387.508 23.9668 410.703 0.771484 457.068 0.771484Z" fill="#EF3E5C"/>
<path d="M360.592 302.723C287.869 237.252 226.609 188.232 226.609 112.857C226.609 61.6504 268.154 20.0801 319.387 20.0801C322.852 20.0801 326.172 20.2246 329.387 20.4844C314.342 7.3418 296.225 0.771484 271.535 0.771484C220.305 0.771484 178.758 42.3418 178.758 93.5488C178.758 168.924 240.016 217.941 312.74 283.414C329.535 298.527 346.912 314.52 364.312 331.922C368.867 327.361 373.422 322.908 377.967 318.531C372.125 313.148 366.322 307.879 360.592 302.723Z" fill="#E42A53"/>
<path d="M558.48 385.229C558.437 385.229 558.393 385.229 558.352 385.229C553.822 385.168 549.928 382.004 548.947 377.582L521.199 252.719L496.953 325.457C495.623 329.445 491.893 332.135 487.689 332.135H363.805C358.41 332.135 354.039 327.764 354.039 322.369C354.039 316.975 358.41 312.604 363.805 312.604H480.65L513.818 213.096C515.205 208.932 519.197 206.188 523.586 206.432C527.969 206.656 531.664 209.781 532.615 214.064L559.037 332.963L602.098 160.723C603.186 156.375 607.092 153.326 611.572 153.326C616.053 153.326 619.959 156.377 621.047 160.723L654.594 294.904H700.061C705.455 294.904 709.826 299.275 709.826 304.67C709.826 310.064 705.455 314.436 700.061 314.436H646.967C642.486 314.436 638.58 311.385 637.492 307.039L611.572 203.355L567.953 377.83C566.865 382.182 562.955 385.229 558.48 385.229Z" fill="#EF3E5C"/>
<path d="M169.045 385.229C164.57 385.229 160.66 382.184 159.572 377.832L115.953 203.357L90.0312 307.041C88.9453 311.389 85.039 314.438 80.5566 314.438H9.76562C4.37305 314.438 0 310.066 0 304.672C0 299.277 4.37305 294.906 9.76562 294.906H72.9336L106.48 160.725C107.566 156.377 111.473 153.328 115.955 153.328C120.436 153.328 124.342 156.379 125.43 160.725L168.49 332.963L194.91 214.066C195.861 209.783 199.557 206.658 203.941 206.434C208.311 206.184 212.32 208.934 213.709 213.098L246.877 312.605H363.721C369.115 312.605 373.486 316.977 373.486 322.371C373.486 327.766 369.115 332.137 363.721 332.137H239.836C235.633 332.137 231.9 329.447 230.572 325.459L206.326 252.721L178.58 377.584C177.598 382.006 173.703 385.17 169.176 385.23C169.133 385.229 169.088 385.229 169.045 385.229Z" fill="#EF3E5C"/>
</svg>
